<svg width="17" height="19" viewBox="0 0 17 19" fill="none" xmlns="http://www.w3.org/2000/svg">
<path fill-rule="evenodd" clip-rule="evenodd" d="M0.449219 17.5508C0.449219 17.2458 0.570379 16.9533 0.786046 16.7376C1.00171 16.5219 1.29422 16.4008 1.59922 16.4008H15.3992C15.7042 16.4008 15.9967 16.5219 16.2124 16.7376C16.4281 16.9533 16.5492 17.2458 16.5492 17.5508C16.5492 17.8558 16.4281 18.1483 16.2124 18.364C15.9967 18.5796 15.7042 18.7008 15.3992 18.7008H1.59922C1.29422 18.7008 1.00171 18.5796 0.786046 18.364C0.570379 18.1483 0.449219 17.8558 0.449219 17.5508ZM4.23617 8.68773C4.45183 8.47214 4.74428 8.35103 5.04922 8.35103C5.35416 8.35103 5.64661 8.47214 5.86227 8.68773L7.34922 10.1747V1.45078C7.34922 1.14578 7.47038 0.853275 7.68605 0.637608C7.90171 0.421942 8.19422 0.300781 8.49922 0.300781C8.80422 0.300781 9.09672 0.421942 9.31239 0.637608C9.52806 0.853275 9.64922 1.14578 9.64922 1.45078V10.1747L11.1362 8.68773C11.2423 8.57789 11.3691 8.49028 11.5095 8.43001C11.6498 8.36974 11.8007 8.33802 11.9534 8.33669C12.1061 8.33537 12.2575 8.36446 12.3988 8.42229C12.5401 8.48011 12.6685 8.5655 12.7765 8.67348C12.8845 8.78145 12.9699 8.90985 13.0277 9.05118C13.0855 9.19251 13.1146 9.34395 13.1133 9.49664C13.112 9.64934 13.0803 9.80024 13.02 9.94055C12.9597 10.0809 12.8721 10.2077 12.7623 10.3138L9.31227 13.7638C9.09661 13.9794 8.80416 14.1005 8.49922 14.1005C8.19428 14.1005 7.90183 13.9794 7.68617 13.7638L4.23617 10.3138C4.02058 10.0982 3.89946 9.80572 3.89946 9.50078C3.89946 9.19584 4.02058 8.90339 4.23617 8.68773Z" fill="#FF9138"/>
</svg>
