<svg width="14" height="14" viewBox="0 0 14 14" fill="none" xmlns="http://www.w3.org/2000/svg">
<path d="M0 1.55556C0 0.696446 0.696446 0 1.55556 0H4.10608C4.44086 0 4.73807 0.214223 4.84394 0.531823L6.00891 4.02672C6.13131 4.39392 5.96507 4.79524 5.61888 4.96834L3.86323 5.84616C4.72053 7.74761 6.25239 9.27947 8.15384 10.1368L9.03166 8.38113C9.20476 8.03493 9.60608 7.86869 9.97328 7.99109L13.4682 9.15606C13.7858 9.26193 14 9.55914 14 9.89392V12.4444C14 13.3036 13.3036 14 12.4444 14H11.6667C5.22334 14 0 8.77666 0 2.33333V1.55556Z" fill="#FF9138"/>
</svg>
