<svg width="26" height="26" viewBox="0 0 26 26" fill="none" xmlns="http://www.w3.org/2000/svg">
<path d="M11.919 2.07053C12.2924 1.08586 13.7052 1.08586 14.0797 2.07053L16.4947 8.7602C16.5789 8.97812 16.7273 9.16536 16.9202 9.29721C17.1131 9.42906 17.3414 9.49931 17.575 9.4987H23.5099C24.6065 9.4987 25.0849 10.8637 24.2227 11.5322L19.9994 15.332C19.8102 15.4775 19.6719 15.6791 19.6044 15.908C19.5369 16.1368 19.5437 16.3812 19.6237 16.606L21.166 23.1429C21.5417 24.1929 20.326 25.0947 19.4067 24.4484L13.6702 20.8084C13.4737 20.6703 13.2395 20.5962 12.9994 20.5962C12.7592 20.5962 12.525 20.6703 12.3285 20.8084L6.59202 24.4484C5.67386 25.0947 4.45702 24.1917 4.83269 23.1429L6.37502 16.606C6.45503 16.3812 6.46177 16.1368 6.39428 15.908C6.32679 15.6791 6.18854 15.4775 5.99936 15.332L1.77602 11.5322C0.91269 10.8637 1.39336 9.4987 2.48769 9.4987H8.42252C8.6562 9.49948 8.8846 9.42929 9.07751 9.29741C9.27042 9.16554 9.41874 8.97821 9.50286 8.7602L11.9179 2.07053H11.919Z" stroke="#DADADA" stroke-width="2" stroke-linecap="round" stroke-linejoin="round"/>
</svg>
