<svg width="24" height="24" viewBox="0 0 24 24" fill="none" xmlns="http://www.w3.org/2000/svg">
<path d="M10.919 1.07053C11.2924 0.0858646 12.7052 0.0858646 13.0797 1.07053L15.4947 7.7602C15.5789 7.97812 15.7273 8.16536 15.9202 8.29721C16.1131 8.42906 16.3414 8.49931 16.575 8.4987H22.5099C23.6065 8.4987 24.0849 9.8637 23.2227 10.5322L18.9994 14.332C18.8102 14.4775 18.6719 14.6791 18.6044 14.908C18.5369 15.1368 18.5437 15.3812 18.6237 15.606L20.166 22.1429C20.5417 23.1929 19.326 24.0947 18.4067 23.4484L12.6702 19.8084C12.4737 19.6703 12.2395 19.5962 11.9994 19.5962C11.7592 19.5962 11.525 19.6703 11.3285 19.8084L5.59202 23.4484C4.67386 24.0947 3.45702 23.1917 3.83269 22.1429L5.37502 15.606C5.45503 15.3812 5.46177 15.1368 5.39428 14.908C5.32679 14.6791 5.18854 14.4775 4.99936 14.332L0.776024 10.5322C-0.0873097 9.8637 0.393357 8.4987 1.48769 8.4987H7.42252C7.6562 8.49948 7.8846 8.42929 8.07751 8.29741C8.27042 8.16554 8.41875 7.97821 8.50286 7.7602L10.9179 1.07053H10.919Z" fill="#FF9138"/>
</svg>
