<svg width="16" height="12" viewBox="0 0 16 12" fill="none" xmlns="http://www.w3.org/2000/svg">
<path d="M15.2257 5.54648C13.5593 2.03613 11.0404 0.269531 7.66362 0.269531C4.2851 0.269531 1.76791 2.03613 0.101505 5.54824C0.0346652 5.68978 0 5.84436 0 6.00088C0 6.1574 0.0346652 6.31198 0.101505 6.45352C1.76791 9.96387 4.28686 11.7305 7.66362 11.7305C11.0421 11.7305 13.5593 9.96387 15.2257 6.45176C15.3611 6.16699 15.3611 5.83652 15.2257 5.54648ZM7.66362 10.4648C4.82827 10.4648 2.75229 9.02695 1.28803 6C2.75229 2.97305 4.82827 1.53516 7.66362 1.53516C10.499 1.53516 12.575 2.97305 14.0392 6C12.5767 9.02695 10.5007 10.4648 7.66362 10.4648ZM7.59331 2.90625C5.88471 2.90625 4.49956 4.29141 4.49956 6C4.49956 7.70859 5.88471 9.09375 7.59331 9.09375C9.3019 9.09375 10.6871 7.70859 10.6871 6C10.6871 4.29141 9.3019 2.90625 7.59331 2.90625ZM7.59331 7.96875C6.50522 7.96875 5.62456 7.08809 5.62456 6C5.62456 4.91191 6.50522 4.03125 7.59331 4.03125C8.68139 4.03125 9.56206 4.91191 9.56206 6C9.56206 7.08809 8.68139 7.96875 7.59331 7.96875Z" fill="#3F0B71"/>
</svg>
