<svg width="30" height="30" viewBox="0 0 30 30" fill="none" xmlns="http://www.w3.org/2000/svg">
<circle cx="15" cy="15" r="15" fill="#FF9138"/>
<path d="M14.9882 15.2835C12.634 15.2835 10.6773 13.3285 10.6773 11.0152C10.6773 8.62185 12.634 6.66602 14.989 6.66602C17.424 6.66602 19.2998 8.62102 19.2998 11.0152C19.2956 12.1511 18.8406 13.2388 18.0348 14.0393C17.2289 14.8399 16.1382 15.2877 15.0023 15.2843L14.9882 15.2835V15.2835ZM14.9882 9.18018C13.9915 9.18018 13.2332 10.0177 13.2332 11.016C13.2332 12.0127 13.9915 12.771 14.989 12.771C16.0265 12.771 16.7448 12.0127 16.7448 11.016C16.7457 10.0168 16.0265 9.18018 14.9882 9.18018ZM16.7048 18.8352L19.1407 21.1893C19.6198 21.7068 19.6198 22.4652 19.1407 22.9443C18.6223 23.4618 17.8232 23.4618 17.424 22.9443L14.989 20.5502L12.634 22.9443C12.3948 23.1835 12.0748 23.3027 11.7148 23.3027C11.4357 23.3027 11.1165 23.1827 10.8365 22.9443C10.3573 22.4652 10.3573 21.7068 10.8365 21.1885L13.3115 18.8343C12.4177 18.5697 11.5603 18.1948 10.759 17.7185C10.1598 17.3993 10.0407 16.6018 10.3598 16.0027C10.759 15.4043 11.4773 15.2452 12.1165 15.6443C12.982 16.1725 13.9763 16.452 14.9903 16.452C16.0042 16.452 16.9985 16.1725 17.864 15.6443C18.5032 15.2452 19.2607 15.4043 19.6198 16.0027C19.9798 16.6018 19.819 17.3985 19.2598 17.7185C18.5023 18.1977 17.624 18.5568 16.7057 18.836L16.7048 18.8352V18.8352Z" fill="#3F0B71"/>
</svg>
