<svg width="30" height="30" viewBox="0 0 30 30" fill="none" xmlns="http://www.w3.org/2000/svg">
<circle cx="15" cy="15" r="15" fill="#3F0B71"/>
<path d="M14.9882 15.2855C12.634 15.2855 10.6773 13.3305 10.6773 11.0171C10.6773 8.6238 12.634 6.66797 14.989 6.66797C17.424 6.66797 19.2998 8.62297 19.2998 11.0171C19.2956 12.153 18.8406 13.2407 18.0348 14.0413C17.2289 14.8418 16.1382 15.2896 15.0023 15.2863L14.9882 15.2855ZM14.9882 9.18214C13.9915 9.18214 13.2332 10.0196 13.2332 11.018C13.2332 12.0146 13.9915 12.773 14.989 12.773C16.0265 12.773 16.7448 12.0146 16.7448 11.018C16.7457 10.0188 16.0265 9.18214 14.9882 9.18214ZM16.7048 18.8371L19.1407 21.1913C19.6198 21.7088 19.6198 22.4671 19.1407 22.9463C18.6223 23.4638 17.8232 23.4638 17.424 22.9463L14.989 20.5521L12.634 22.9463C12.3948 23.1855 12.0748 23.3046 11.7148 23.3046C11.4357 23.3046 11.1165 23.1846 10.8365 22.9463C10.3573 22.4671 10.3573 21.7088 10.8365 21.1905L13.3115 18.8363C12.4177 18.5716 11.5603 18.1968 10.759 17.7205C10.1598 17.4013 10.0407 16.6038 10.3598 16.0046C10.759 15.4063 11.4773 15.2471 12.1165 15.6463C12.982 16.1745 13.9763 16.4539 14.9903 16.4539C16.0042 16.4539 16.9985 16.1745 17.864 15.6463C18.5032 15.2471 19.2607 15.4063 19.6198 16.0046C19.9798 16.6038 19.819 17.4005 19.2598 17.7205C18.5023 18.1996 17.624 18.5588 16.7057 18.838L16.7048 18.8371Z" fill="white"/>
</svg>
