<svg width="80" height="80" viewBox="0 0 80 80" fill="none" xmlns="http://www.w3.org/2000/svg">
<path d="M38.3773 6.83063C37.9992 6.68905 37.5925 6.64115 37.1918 6.69103C36.7912 6.74091 36.4085 6.88708 36.0767 7.11705C35.7448 7.34702 35.4736 7.65394 35.2862 8.01157C35.0989 8.36919 35.0009 8.76688 35.0007 9.17063V49.594C32.6907 47.7445 29.8312 46.7161 26.8725 46.6705C23.9138 46.625 21.024 47.565 18.6583 49.3424C16.2925 51.1199 14.5853 53.6338 13.8054 56.4882C13.0255 59.3427 13.2173 62.3754 14.3506 65.1089C15.4839 67.8423 17.4943 70.1211 20.0652 71.5863C22.636 73.0515 25.6212 73.6199 28.5506 73.202C31.48 72.784 34.1871 71.4034 36.2456 69.2777C38.3041 67.152 39.597 64.4019 39.9207 61.4606C39.9735 61.257 40.0004 61.0476 40.0007 60.8373V29.444L63.2907 38.1773C63.6688 38.3189 64.0755 38.3668 64.4762 38.3169C64.8768 38.267 65.2595 38.1208 65.5913 37.8909C65.9232 37.6609 66.1944 37.354 66.3818 36.9964C66.5691 36.6387 66.6671 36.241 66.6673 35.8373V24.9473C66.6679 22.7414 65.9951 20.5879 64.7389 18.7747C63.4826 16.9615 61.7028 15.5751 59.6373 14.8006L38.3773 6.83063ZM35.0007 60.004C35.0007 62.2141 34.1227 64.3337 32.5599 65.8965C30.9971 67.4593 28.8775 68.3373 26.6673 68.3373C24.4572 68.3373 22.3376 67.4593 20.7748 65.8965C19.212 64.3337 18.334 62.2141 18.334 60.004C18.334 57.7938 19.212 55.6742 20.7748 54.1114C22.3376 52.5486 24.4572 51.6706 26.6673 51.6706C28.8775 51.6706 30.9971 52.5486 32.5599 54.1114C34.1227 55.6742 35.0007 57.7938 35.0007 60.004ZM61.6673 32.2306L40.0007 24.104V12.7773L57.8807 19.484C58.993 19.9007 59.9516 20.6472 60.6283 21.6235C61.305 22.5998 61.6675 23.7594 61.6673 24.9473V32.2306Z" fill="#FF9138"/>
</svg>
