<svg width="80" height="80" viewBox="0 0 80 80" fill="none" xmlns="http://www.w3.org/2000/svg">
<path d="M5 15C5 13.6739 5.52678 12.4021 6.46447 11.4645C7.40215 10.5268 8.67392 10 10 10H70C71.3261 10 72.5979 10.5268 73.5355 11.4645C74.4732 12.4021 75 13.6739 75 15H5ZM40 55C42.6522 55 45.1957 53.9464 47.0711 52.0711C48.9464 50.1957 50 47.6522 50 45C50 42.3478 48.9464 39.8043 47.0711 37.9289C45.1957 36.0536 42.6522 35 40 35C37.3478 35 34.8043 36.0536 32.9289 37.9289C31.0536 39.8043 30 42.3478 30 45C30 47.6522 31.0536 50.1957 32.9289 52.0711C34.8043 53.9464 37.3478 55 40 55Z" fill="#FF9138"/>
<path d="M0 25C0 23.6739 0.526784 22.4021 1.46447 21.4645C2.40215 20.5268 3.67392 20 5 20H75C76.3261 20 77.5979 20.5268 78.5355 21.4645C79.4732 22.4021 80 23.6739 80 25V65C80 66.3261 79.4732 67.5979 78.5355 68.5355C77.5979 69.4732 76.3261 70 75 70H5C3.67392 70 2.40215 69.4732 1.46447 68.5355C0.526784 67.5979 0 66.3261 0 65V25ZM15 25C15 27.6522 13.9464 30.1957 12.0711 32.0711C10.1957 33.9464 7.65216 35 5 35V55C7.65216 55 10.1957 56.0536 12.0711 57.9289C13.9464 59.8043 15 62.3478 15 65H65C65 62.3478 66.0536 59.8043 67.9289 57.9289C69.8043 56.0536 72.3478 55 75 55V35C72.3478 35 69.8043 33.9464 67.9289 32.0711C66.0536 30.1957 65 27.6522 65 25H15Z" fill="#FF9138"/>
</svg>
