<svg width="80" height="80" viewBox="0 0 80 80" fill="none" xmlns="http://www.w3.org/2000/svg">
<path d="M35.9522 36.4716C35.3707 37.0658 34.9094 37.7712 34.5946 38.5477C34.2798 39.3242 34.1177 40.1564 34.1175 40.997C34.1173 41.8375 34.279 42.6699 34.5935 43.4465C34.9079 44.2231 35.3689 44.9288 35.9502 45.5233C36.5314 46.1183 37.2216 46.5904 37.9814 46.9125C38.7412 47.2346 39.5557 47.4005 40.3782 47.4006C41.2008 47.4007 42.0152 47.235 42.7751 46.9131C43.535 46.5911 44.2254 46.1192 44.8067 45.5243C45.3891 44.9301 45.8511 44.2243 46.1663 43.4474C46.4815 42.6704 46.6438 41.8375 46.6438 40.9964C46.6438 40.1552 46.4815 39.3223 46.1663 38.5454C45.8511 37.7684 45.3891 37.0626 44.8067 36.4684C44.2254 35.8737 43.5351 35.402 42.7753 35.0803C42.0156 34.7585 41.2012 34.5931 40.3788 34.5934C39.5565 34.5937 38.7422 34.7597 37.9827 35.082C37.2231 35.4043 36.5331 35.8765 35.9522 36.4716ZM67.7025 71.6851C84.1395 54.7359 84.1004 27.2768 67.577 10.3834C67.5533 10.3592 67.5255 10.3444 67.5018 10.3213L67.508 10.315L65.7626 8.52842L65.742 8.54947C65.2781 8.16963 64.6948 7.97523 64.1011 8.00253C63.5073 8.02982 62.9435 8.27694 62.5147 8.69782L62.5116 8.69466L62.4849 8.72202L62.4766 8.72938L62.4705 8.7378L59.6147 11.6565L59.6141 11.658L59.6126 11.6586L59.4068 11.869L59.4274 11.8901C59.0865 12.333 58.902 12.8807 58.9039 13.4443C58.9058 14.008 59.0939 14.5544 59.4377 14.995L59.4181 15.015L59.6136 15.2149L59.6147 15.2159L61.1645 16.7994L61.1923 16.771C61.215 16.7952 61.2304 16.8236 61.2541 16.8478C74.2899 30.1765 74.331 51.8362 61.3796 65.2196L61.3621 65.2017L59.8143 66.7842L59.8112 66.7863L59.8092 66.7894L59.6157 66.9872L59.6353 67.0072C59.2637 67.4816 59.0736 68.0779 59.1003 68.6849C59.127 69.292 59.3687 69.8685 59.7804 70.3068L59.7773 70.31L59.8092 70.3426L59.8112 70.3457L59.8143 70.3478L61.251 71.8166L61.253 71.8198L61.2561 71.8219L62.6722 73.2697L62.6742 73.2728L62.6773 73.2749L62.8811 73.4833L62.9017 73.4622C63.335 73.811 63.8708 73.9998 64.4223 73.9981C64.9737 73.9963 65.5084 73.8042 65.9396 73.4528L65.9592 73.4727L67.5718 71.823C67.5732 71.8212 67.575 71.8198 67.577 71.8187L67.5955 71.7988L67.7056 71.6862L67.7025 71.6851Z" fill="#FF9138"/>
<path d="M55.3929 59.6602C64.7112 49.3409 64.6742 32.673 55.273 22.4112C55.2506 22.3867 55.2242 22.3718 55.2018 22.3473L55.2087 22.3399L53.5547 20.5333L53.5352 20.5546C53.0957 20.1709 52.5434 19.9746 51.9812 20.0022C51.419 20.0298 50.8851 20.2794 50.4788 20.7046L50.4759 20.7014L50.4476 20.7323L50.4428 20.7365L50.4389 20.7418L47.7353 23.6932L47.7314 23.6964L47.7284 23.7007L47.5355 23.9114L47.555 23.9326C47.232 24.3804 47.0571 24.9342 47.0587 25.5042C47.0603 26.0741 47.2383 26.6267 47.5637 27.0724L47.5452 27.0926L49.1991 28.8992L49.2255 28.8705C49.2469 28.8949 49.2615 28.9236 49.2839 28.9481C55.3831 35.6053 55.4172 46.4044 49.3999 53.118L49.3872 53.1041L47.9204 54.7054L47.9185 54.7065L47.9175 54.7086L47.7333 54.9097L47.7518 54.9299C47.4002 55.4095 47.2203 56.0122 47.2456 56.6259C47.2709 57.2395 47.4996 57.8222 47.8892 58.2654L47.8853 58.2696L50.8258 61.4785L50.8453 61.4573C51.2556 61.8095 51.7629 62.0002 52.2849 61.9984C52.8068 61.9967 53.313 61.8026 53.7214 61.4477L53.7409 61.469L55.3948 59.6634L55.3929 59.6602Z" fill="#FF9138"/>
<path d="M45.1654 36.3357C44.5648 35.7225 43.8516 35.236 43.0666 34.9041C42.2816 34.5722 41.4401 34.4013 40.5903 34.4012C39.7405 34.4011 38.899 34.5718 38.1139 34.9035C37.3288 35.2353 36.6155 35.7216 36.0148 36.3346C35.4134 36.947 34.9363 37.6743 34.6108 38.475C34.2853 39.2756 34.1178 40.1338 34.1178 41.0006C34.1178 41.8673 34.2853 42.7255 34.6108 43.5262C34.9363 44.3268 35.4134 45.0541 36.0148 45.6665C36.6153 46.2798 37.3284 46.7663 38.1135 47.0982C38.8985 47.4301 39.74 47.6009 40.5898 47.6008C41.4396 47.6007 42.281 47.4297 43.0659 47.0976C43.8509 46.7655 44.5639 46.2788 45.1643 45.6654C46.3773 44.4283 47.0588 42.7504 47.059 41.0008C47.0592 39.2512 46.3781 37.5731 45.1654 36.3357Z" fill="#FF9138"/>
<path d="M33.5737 54.9302L33.5937 54.91L33.3963 54.71L33.3932 54.7057L31.8125 53.1024L31.7841 53.1311C31.761 53.1066 31.7453 53.0779 31.7222 53.0545C25.1536 46.3963 25.1169 35.5972 31.5973 28.8836L31.6109 28.8975L33.3921 27.093L33.3711 27.0717C33.7498 26.5921 33.9435 25.9894 33.9163 25.3758C33.8891 24.7621 33.6427 24.1794 33.2231 23.7362L33.2273 23.732L30.0596 20.522L30.0386 20.5433C29.5968 20.1908 29.0505 19.9998 28.4882 20.0016C27.926 20.0033 27.3808 20.1976 26.9412 20.5529L26.9212 20.5327L25.14 22.3382L25.1431 22.3414C15.1066 32.6607 15.1476 49.3285 25.2722 59.5914C25.2953 59.6148 25.3237 59.6308 25.3478 59.6542L25.3415 59.6606L27.1227 61.4672L27.1437 61.4459C27.617 61.8293 28.2116 62.0254 28.8168 61.9978C29.4221 61.9702 29.9968 61.7208 30.4343 61.2959L30.4374 61.2991L30.4679 61.2682L30.4731 61.264L30.4773 61.2586L33.39 58.3062L33.3932 58.304L33.6042 58.0902L33.5832 58.0689C33.9311 57.6214 34.1195 57.0677 34.1178 56.4979C34.1161 55.9281 33.9243 55.3756 33.5737 54.9302Z" fill="#FF9138"/>
<path d="M20.6413 67.0053L20.6609 66.9853L18.9068 65.1999L18.8789 65.2283C18.8562 65.2041 18.8407 65.1757 18.8179 65.1515C5.73148 51.8221 5.69222 30.1651 18.693 16.7821L18.7095 16.7989L20.2632 15.2165L20.2663 15.2144L20.2683 15.2113L20.4625 15.0135L20.4429 14.9935C20.8158 14.5192 21.0067 13.9229 20.9799 13.3158C20.9531 12.7088 20.7105 12.1324 20.2973 11.694L20.3014 11.6898L17.1847 8.51555L17.1641 8.53765C16.7293 8.189 16.1916 8.00022 15.6382 8.00194C15.0848 8.00366 14.5483 8.19577 14.1156 8.54712L14.0949 8.52607L12.3429 10.3115L12.346 10.3147C-4.15569 27.2644 -4.11643 54.7239 12.471 71.6168C12.4947 71.641 12.5226 71.6557 12.5464 71.6789L12.5392 71.6862L14.2922 73.4728L14.3129 73.4517C14.7789 73.831 15.3643 74.0249 15.9603 73.9974C16.5562 73.9699 17.122 73.7229 17.5525 73.3023L17.5556 73.3055L20.4594 70.3469L20.4646 70.3427L20.4687 70.3374L20.6712 70.1312L20.6506 70.1102C20.9929 69.6673 21.1782 69.1197 21.1765 68.5561C21.1749 67.9925 20.9862 67.446 20.6413 67.0053Z" fill="#FF9138"/>
</svg>
