<svg width="101" height="100" viewBox="0 0 101 100" fill="none" xmlns="http://www.w3.org/2000/svg">
<rect x="2.5" y="2" width="96" height="96" rx="18" fill="#3F0B71" stroke="#FF9138" stroke-width="4"/>
<path d="M64.3 42.7348H60.5V48.5344H54.8V52.4008H60.5V58.2004H64.3V52.4008H70V48.5344H64.3V42.7348ZM35.8 42.7348C35.7766 43.7568 35.9572 44.773 36.3308 45.722C36.7045 46.6709 37.2634 47.5329 37.9739 48.2558C38.6843 48.9786 39.5315 49.5473 40.4642 49.9275C41.3968 50.3077 42.3956 50.4914 43.4 50.4676C44.4044 50.4914 45.4032 50.3077 46.3358 49.9275C47.2685 49.5473 48.1157 48.9786 48.8261 48.2558C49.5366 47.5329 50.0955 46.6709 50.4692 45.722C50.8428 44.773 51.0234 43.7568 51 42.7348C51.0234 41.7128 50.8428 40.6966 50.4692 39.7477C50.0955 38.7987 49.5366 37.9368 48.8261 37.2139C48.1157 36.4911 47.2685 35.9223 46.3358 35.5422C45.4032 35.162 44.4044 34.9782 43.4 35.0021C42.3956 34.9782 41.3968 35.162 40.4642 35.5422C39.5315 35.9223 38.6843 36.4911 37.9739 37.2139C37.2634 37.9368 36.7045 38.7987 36.3308 39.7477C35.9572 40.6966 35.7766 41.7128 35.8 42.7348ZM47.2 42.7348C47.2244 43.2492 47.1429 43.763 46.9606 44.2434C46.7782 44.7237 46.4992 45.1599 46.1413 45.5241C45.7835 45.8882 45.3547 46.1721 44.8826 46.3576C44.4105 46.5431 43.9055 46.6261 43.4 46.6012C42.8945 46.6261 42.3895 46.5431 41.9174 46.3576C41.4453 46.1721 41.0165 45.8882 40.6587 45.5241C40.3008 45.1599 40.0218 44.7237 39.8394 44.2434C39.6571 43.763 39.5756 43.2492 39.6 42.7348C39.5756 42.2205 39.6571 41.7067 39.8394 41.2263C40.0218 40.746 40.3008 40.3097 40.6587 39.9456C41.0165 39.5815 41.4453 39.2976 41.9174 39.1121C42.3895 38.9266 42.8945 38.8436 43.4 38.8684C43.9055 38.8436 44.4105 38.9266 44.8826 39.1121C45.3547 39.2976 45.7835 39.5815 46.1413 39.9456C46.4992 40.3097 46.7782 40.746 46.9606 41.2263C47.1429 41.7067 47.2244 42.2205 47.2 42.7348ZM35.8 62.0668C35.8 60.5287 36.4005 59.0535 37.4695 57.9659C38.5384 56.8782 39.9883 56.2672 41.5 56.2672H45.3C46.8117 56.2672 48.2616 56.8782 49.3305 57.9659C50.3995 59.0535 51 60.5287 51 62.0668V64H54.8V62.0668C54.8 60.7974 54.5543 59.5405 54.0769 58.3678C53.5994 57.1951 52.8997 56.1295 52.0175 55.2319C51.1354 54.3344 50.0881 53.6224 48.9355 53.1366C47.7829 52.6508 46.5476 52.4008 45.3 52.4008H41.5C38.9804 52.4008 36.5641 53.4192 34.7825 55.2319C33.0009 57.0446 32 59.5032 32 62.0668V64H35.8V62.0668Z" fill="#FF9138"/>
</svg>
