<svg width="101" height="100" viewBox="0 0 101 100" fill="none" xmlns="http://www.w3.org/2000/svg">
<rect x="2.5" y="2" width="96" height="96" rx="18" fill="#3F0B71" stroke="#FF9138" stroke-width="4"/>
<path d="M59.9435 33.1227C59.6062 33.195 59.3053 33.3843 59.0941 33.6572C58.8829 33.93 58.7751 34.2687 58.7897 34.6134V63.8442C58.7554 64.0534 58.767 64.2674 58.8237 64.4716C58.8804 64.6758 58.9809 64.8652 59.1181 65.0268C59.2553 65.1883 59.426 65.318 59.6183 65.407C59.8107 65.496 60.02 65.5421 60.232 65.5421C60.4439 65.5421 60.6533 65.496 60.8456 65.407C61.038 65.318 61.2086 65.1883 61.3458 65.0268C61.4831 64.8652 61.5835 64.6758 61.6402 64.4716C61.6969 64.2674 61.7085 64.0534 61.6743 63.8442V34.6134C61.6792 34.408 61.6406 34.2038 61.5613 34.0142C61.4819 33.8246 61.3634 33.6539 61.2136 33.5133C61.0637 33.3726 60.8859 33.2651 60.6917 33.1978C60.4975 33.1305 60.2913 33.1049 60.0866 33.1227C60.0389 33.1203 59.9912 33.1203 59.9435 33.1227ZM41.482 34.6611C41.1446 34.7335 40.8437 34.9228 40.6326 35.1956C40.4214 35.4685 40.3136 35.8072 40.3281 36.1519V62.3058C40.2939 62.5149 40.3055 62.729 40.3622 62.9332C40.4189 63.1374 40.5193 63.3268 40.6565 63.4883C40.7938 63.6498 40.9644 63.7796 41.1568 63.8685C41.3491 63.9575 41.5585 64.0036 41.7704 64.0036C41.9824 64.0036 42.1917 63.9575 42.3841 63.8685C42.5764 63.7796 42.7471 63.6498 42.8843 63.4883C43.0215 63.3268 43.122 63.1374 43.1787 62.9332C43.2354 62.729 43.247 62.5149 43.2127 62.3058V36.1519C43.2176 35.9464 43.1791 35.7423 43.0997 35.5527C43.0203 35.3631 42.9019 35.1924 42.752 35.0517C42.6022 34.911 42.4244 34.8035 42.2302 34.7362C42.036 34.6689 41.8298 34.6433 41.625 34.6611C41.5774 34.6588 41.5296 34.6588 41.482 34.6611ZM55.3281 39.2765C54.9908 39.3489 54.6899 39.5382 54.4787 39.811C54.2676 40.0838 54.1597 40.4226 54.1743 40.7673V57.6904C54.1393 57.8998 54.1503 58.1143 54.2066 58.319C54.263 58.5237 54.3632 58.7137 54.5004 58.8758C54.6376 59.0378 54.8085 59.168 55.0011 59.2573C55.1937 59.3466 55.4035 59.3929 55.6158 59.3929C55.8281 59.3929 56.0379 59.3466 56.2305 59.2573C56.4232 59.168 56.594 59.0378 56.7312 58.8758C56.8684 58.7137 56.9687 58.5237 57.025 58.319C57.0813 58.1143 57.0924 57.8998 57.0574 57.6904V40.7673C57.0622 40.5621 57.0238 40.3582 56.9446 40.1689C56.8654 39.9795 56.7472 39.809 56.5977 39.6683C56.4482 39.5277 56.2708 39.4201 56.0769 39.3526C55.8831 39.2851 55.6772 39.2592 55.4727 39.2765C55.4241 39.2741 55.3753 39.2741 55.3266 39.2765H55.3281ZM36.8666 40.815C36.5292 40.8873 36.2284 41.0766 36.0172 41.3495C35.806 41.6223 35.6982 41.9611 35.7127 42.3058V56.1519C35.6777 56.3613 35.6888 56.5759 35.7451 56.7806C35.8014 56.9853 35.9017 57.1753 36.0389 57.3373C36.1761 57.4993 36.3469 57.6295 36.5396 57.7188C36.7322 57.8081 36.942 57.8544 37.1543 57.8544C37.3666 57.8544 37.5764 57.8081 37.769 57.7188C37.9616 57.6295 38.1325 57.4993 38.2697 57.3373C38.4069 57.1753 38.5071 56.9853 38.5635 56.7806C38.6198 56.5759 38.6308 56.3613 38.5958 56.1519V42.3058C38.6007 42.1006 38.5622 41.8967 38.483 41.7073C38.4038 41.518 38.2856 41.3474 38.1361 41.2068C37.9867 41.0662 37.8092 40.9586 37.6154 40.8911C37.4216 40.8236 37.2157 40.7976 37.0112 40.815C36.9625 40.8125 36.9137 40.8125 36.865 40.815H36.8666ZM46.0974 42.3534C45.76 42.4258 45.4591 42.6151 45.248 42.8879C45.0368 43.1608 44.9289 43.4995 44.9435 43.8442V54.6134C44.9085 54.8229 44.9195 55.0374 44.9759 55.2421C45.0322 55.4468 45.1324 55.6368 45.2696 55.7988C45.4068 55.9609 45.5777 56.0911 45.7703 56.1804C45.963 56.2697 46.1727 56.3159 46.385 56.3159C46.5974 56.3159 46.8071 56.2697 46.9998 56.1804C47.1924 56.0911 47.3633 55.9609 47.5005 55.7988C47.6377 55.6368 47.7379 55.4468 47.7942 55.2421C47.8505 55.0374 47.8616 54.8229 47.8266 54.6134V43.8442C47.8314 43.639 47.793 43.4351 47.7138 43.2458C47.6346 43.0564 47.5164 42.8859 47.3669 42.7453C47.2174 42.6046 47.04 42.497 46.8462 42.4295C46.6523 42.362 46.4465 42.3361 46.242 42.3534C46.1933 42.351 46.1445 42.351 46.0958 42.3534H46.0974ZM64.5589 42.3534C64.2215 42.4258 63.9207 42.6151 63.7095 42.8879C63.4983 43.1608 63.3905 43.4995 63.405 43.8442V54.6134C63.3708 54.8226 63.3824 55.0367 63.4391 55.2409C63.4958 55.4451 63.5963 55.6345 63.7335 55.796C63.8707 55.9575 64.0414 56.0872 64.2337 56.1762C64.426 56.2652 64.6354 56.3113 64.8474 56.3113C65.0593 56.3113 65.2687 56.2652 65.461 56.1762C65.6533 56.0872 65.824 55.9575 65.9612 55.796C66.0984 55.6345 66.1989 55.4451 66.2556 55.2409C66.3123 55.0367 66.3239 54.8226 66.2897 54.6134V43.8442C66.2945 43.6387 66.256 43.4346 66.1767 43.245C66.0973 43.0554 65.9788 42.8847 65.829 42.744C65.6791 42.6033 65.5013 42.4958 65.3071 42.4285C65.1129 42.3612 64.9067 42.3356 64.702 42.3534C64.6543 42.3511 64.6066 42.3511 64.5589 42.3534ZM32.2512 45.4304C31.9139 45.5027 31.613 45.692 31.4018 45.9649C31.1906 46.2377 31.0828 46.5764 31.0974 46.9211V51.5365C31.0631 51.7457 31.0747 51.9597 31.1314 52.1639C31.1881 52.3681 31.2886 52.5576 31.4258 52.7191C31.563 52.8806 31.7337 53.0103 31.926 53.0993C32.1184 53.1883 32.3277 53.2344 32.5397 53.2344C32.7516 53.2344 32.961 53.1883 33.1533 53.0993C33.3457 53.0103 33.5163 52.8806 33.6535 52.7191C33.7908 52.5576 33.8912 52.3681 33.9479 52.1639C34.0046 51.9597 34.0162 51.7457 33.982 51.5365V46.9211C33.9869 46.7157 33.9483 46.5115 33.869 46.3219C33.7896 46.1323 33.6711 45.9616 33.5213 45.8209C33.3714 45.6803 33.1936 45.5728 32.9994 45.5055C32.8052 45.4382 32.599 45.4126 32.3943 45.4304C32.3461 45.428 32.2978 45.428 32.2497 45.4304H32.2512ZM50.7127 45.4304C50.3754 45.5027 50.0745 45.692 49.8633 45.9649C49.6522 46.2377 49.5443 46.5764 49.5589 46.9211V51.5365C49.5239 51.7459 49.5349 51.9605 49.5913 52.1652C49.6476 52.3699 49.7478 52.5599 49.885 52.7219C50.0222 52.884 50.1931 53.0142 50.3857 53.1035C50.5783 53.1928 50.7881 53.239 51.0004 53.239C51.2128 53.239 51.4225 53.1928 51.6152 53.1035C51.8078 53.0142 51.9786 52.884 52.1158 52.7219C52.253 52.5599 52.3533 52.3699 52.4096 52.1652C52.4659 51.9605 52.477 51.7459 52.442 51.5365V46.9211C52.4468 46.716 52.4084 46.5121 52.3292 46.3227C52.25 46.1334 52.1318 45.9628 51.9823 45.8222C51.8328 45.6815 51.6554 45.574 51.4616 45.5065C51.2677 45.439 51.0619 45.413 50.8574 45.4304C50.8087 45.4279 50.7599 45.4279 50.7112 45.4304H50.7127ZM69.1743 45.4304C68.8369 45.5027 68.5361 45.692 68.3249 45.9649C68.1137 46.2377 68.0059 46.5764 68.0204 46.9211V51.5365C67.9862 51.7457 67.9978 51.9597 68.0545 52.1639C68.1112 52.3681 68.2117 52.5576 68.3489 52.7191C68.4861 52.8806 68.6567 53.0103 68.8491 53.0993C69.0414 53.1883 69.2508 53.2344 69.4627 53.2344C69.6747 53.2344 69.884 53.1883 70.0764 53.0993C70.2687 53.0103 70.4394 52.8806 70.5766 52.7191C70.7138 52.5576 70.8143 52.3681 70.871 52.1639C70.9277 51.9597 70.9393 51.7457 70.905 51.5365V46.9211C70.9099 46.7157 70.8714 46.5115 70.792 46.3219C70.7127 46.1323 70.5942 45.9616 70.4443 45.8209C70.2945 45.6803 70.1167 45.5728 69.9225 45.5055C69.7283 45.4382 69.5221 45.4126 69.3174 45.4304C69.2697 45.428 69.2219 45.428 69.1743 45.4304Z" fill="#FF9138"/>
</svg>
