<svg width="100" height="100" viewBox="0 0 100 100" fill="none" xmlns="http://www.w3.org/2000/svg">
<rect x="2" y="2" width="96" height="96" rx="18" fill="#3F0B71" stroke="#FF9138" stroke-width="4"/>
<path d="M35.5526 63H32C32 60.2417 33.1229 57.5965 35.1216 55.6461C37.1203 53.6957 39.8311 52.6 42.6577 52.6C45.4843 52.6 48.1952 53.6957 50.1939 55.6461C52.1926 57.5965 53.3155 60.2417 53.3155 63H49.7629C49.7629 61.1612 49.0143 59.3976 47.6818 58.0974C46.3494 56.7971 44.5421 56.0667 42.6577 56.0667C40.7733 56.0667 38.9661 56.7971 37.6336 58.0974C36.3012 59.3976 35.5526 61.1612 35.5526 63ZM56.8574 56.7773L52.0508 52.0973L54.5589 49.6395L56.8538 51.8789L64.4919 44.4395L67 46.8939L56.8538 56.7739L56.8574 56.7773ZM42.6577 50.8667C40.7733 50.8667 38.9661 50.1362 37.6336 48.8359C36.3012 47.5357 35.5526 45.7722 35.5526 43.9333C35.5526 42.0945 36.3012 40.331 37.6336 39.0307C38.9661 37.7305 40.7733 37 42.6577 37C44.5421 37 46.3494 37.7305 47.6818 39.0307C49.0143 40.331 49.7629 42.0945 49.7629 43.9333C49.7629 45.7722 49.0143 47.5357 47.6818 48.8359C46.3494 50.1362 44.5421 50.8667 42.6577 50.8667ZM42.6577 40.4667C41.9621 40.4674 41.2819 40.6673 40.7017 41.0418C40.1214 41.4163 39.6666 41.9487 39.3936 42.5732C39.1207 43.1976 39.0416 43.8864 39.1662 44.5543C39.2908 45.2222 39.6137 45.8397 40.0946 46.3301C40.5756 46.8206 41.1936 47.1624 41.8718 47.3133C42.5501 47.4642 43.2588 47.4174 43.9101 47.1788C44.5614 46.9401 45.1265 46.5202 45.5354 45.971C45.9443 45.4218 46.179 44.7675 46.2103 44.0893V44.7827V43.9333C46.2103 43.0139 45.836 42.1322 45.1698 41.482C44.5035 40.8319 43.5999 40.4667 42.6577 40.4667Z" fill="#FF9138"/>
</svg>
