<svg width="101" height="100" viewBox="0 0 101 100" fill="none" xmlns="http://www.w3.org/2000/svg">
<rect x="2.5" y="2" width="96" height="96" rx="18" fill="#3F0B71" stroke="#FF9138" stroke-width="4"/>
<path d="M42.666 38.328V41.6613H40.166C39.503 41.6613 38.8671 41.9247 38.3982 42.3936C37.9294 42.8624 37.666 43.4983 37.666 44.1613V59.9947C37.666 61.7628 38.3684 63.4585 39.6186 64.7087C40.8689 65.959 42.5646 66.6614 44.3327 66.6614H51.2793C51.0946 66.2705 50.9988 65.8436 50.9988 65.4114C50.9988 64.9791 51.0946 64.5522 51.2793 64.1613H44.3327C43.7855 64.1613 43.2437 64.0536 42.7382 63.8442C42.2326 63.6348 41.7733 63.3279 41.3864 62.941C40.9995 62.554 40.6926 62.0947 40.4832 61.5892C40.2738 61.0837 40.166 60.5419 40.166 59.9947V44.1613H52.6827V48.8813C53.4594 48.5158 54.3075 48.3268 55.166 48.328H55.1827V44.1613H61.8327V53.3697L64.3327 50.8697V44.1613C64.3327 43.4983 64.0693 42.8624 63.6004 42.3936C63.1316 41.9247 62.4957 41.6613 61.8327 41.6613H59.3327V38.328C59.3327 37.3628 59.0533 36.4182 58.5282 35.6083C58.0032 34.7984 57.255 34.1578 56.3739 33.7638C55.4928 33.3697 54.5164 33.2391 53.5627 33.3878C52.6091 33.5364 51.7188 33.9579 50.9993 34.6013C50.2799 33.9579 49.3896 33.5364 48.436 33.3878C47.4823 33.2391 46.5059 33.3697 45.6248 33.7638C44.7437 34.1578 43.9955 34.7984 43.4705 35.6083C42.9454 36.4182 42.666 37.3628 42.666 38.328ZM50.166 38.328V41.6613H45.166V38.328C45.166 37.665 45.4294 37.0291 45.8982 36.5602C46.3671 36.0914 47.003 35.828 47.666 35.828C48.3291 35.828 48.9649 36.0914 49.4338 36.5602C49.9026 37.0291 50.166 37.665 50.166 38.328ZM56.8327 41.6613H52.666V38.328C52.666 37.7713 52.5743 37.2347 52.406 36.7347C52.7339 36.3381 53.1763 36.0524 53.6726 35.9165C54.169 35.7806 54.6952 35.8012 55.1794 35.9755C55.6636 36.1498 56.0822 36.4693 56.3781 36.8903C56.674 37.3113 56.8327 37.8134 56.8327 38.328V41.6613ZM55.166 58.328C56.2711 58.328 57.3309 57.889 58.1123 57.1076C58.8937 56.3262 59.3327 55.2664 59.3327 54.1614C59.3327 53.0563 58.8937 51.9965 58.1123 51.2151C57.3309 50.4337 56.2711 49.9947 55.166 49.9947C54.0609 49.9947 53.0011 50.4337 52.2197 51.2151C51.4383 51.9965 50.9993 53.0563 50.9993 54.1614C50.9993 55.2664 51.4383 56.3262 52.2197 57.1076C53.0011 57.889 54.0609 58.328 55.166 58.328ZM55.166 52.4947C55.608 52.4947 56.032 52.6703 56.3445 52.9828C56.6571 53.2954 56.8327 53.7193 56.8327 54.1614C56.8327 54.6034 56.6571 55.0273 56.3445 55.3399C56.032 55.6524 55.608 55.828 55.166 55.828C54.724 55.828 54.3001 55.6524 53.9875 55.3399C53.6749 55.0273 53.4993 54.6034 53.4993 54.1614C53.4993 53.7193 53.6749 53.2954 53.9875 52.9828C54.3001 52.6703 54.724 52.4947 55.166 52.4947ZM65.166 68.328C66.2711 68.328 67.3309 67.889 68.1123 67.1076C68.8937 66.3262 69.3327 65.2664 69.3327 64.1613C69.3327 63.0563 68.8937 61.9965 68.1123 61.2151C67.3309 60.4337 66.2711 59.9947 65.166 59.9947C64.0609 59.9947 63.0011 60.4337 62.2197 61.2151C61.4383 61.9965 60.9993 63.0563 60.9993 64.1613C60.9993 65.2664 61.4383 66.3262 62.2197 67.1076C63.0011 67.889 64.0609 68.328 65.166 68.328ZM65.166 62.4947C65.608 62.4947 66.032 62.6703 66.3445 62.9828C66.6571 63.2954 66.8327 63.7193 66.8327 64.1613C66.8327 64.6034 66.6571 65.0273 66.3445 65.3399C66.032 65.6524 65.608 65.828 65.166 65.828C64.724 65.828 64.3001 65.6524 63.9875 65.3399C63.6749 65.0273 63.4993 64.6034 63.4993 64.1613C63.4993 63.7193 63.6749 63.2954 63.9875 62.9828C64.3001 62.6703 64.724 62.4947 65.166 62.4947ZM67.2993 53.7947C67.4222 53.6802 67.5207 53.5422 67.589 53.3889C67.6573 53.2356 67.694 53.0701 67.697 52.9022C67.7 52.7344 67.6691 52.5677 67.6062 52.412C67.5434 52.2564 67.4498 52.115 67.3311 51.9963C67.2124 51.8776 67.071 51.784 66.9153 51.7211C66.7597 51.6583 66.593 51.6274 66.4251 51.6304C66.2573 51.6333 66.0918 51.6701 65.9384 51.7384C65.7851 51.8067 65.6471 51.9052 65.5327 52.028L53.0327 64.528C52.9099 64.6425 52.8114 64.7805 52.743 64.9338C52.6747 65.0871 52.638 65.2526 52.635 65.4205C52.6321 65.5883 52.6629 65.755 52.7258 65.9107C52.7887 66.0663 52.8823 66.2077 53.001 66.3264C53.1196 66.4451 53.261 66.5387 53.4167 66.6016C53.5723 66.6644 53.739 66.6953 53.9069 66.6923C54.0747 66.6894 54.2402 66.6526 54.3936 66.5843C54.5469 66.516 54.6849 66.4175 54.7993 66.2947L67.2993 53.7947Z" fill="#FF9138"/>
</svg>
