<svg width="101" height="100" viewBox="0 0 101 100" fill="none" xmlns="http://www.w3.org/2000/svg">
<rect x="2.5" y="2" width="96" height="96" rx="18" fill="#3F0B71" stroke="#FF9138" stroke-width="4"/>
<path d="M54.934 33.332L53.2007 37.4987M54.7873 47.407L61.0007 33.332L54.7873 47.407ZM46.5273 47.7187L39.334 33.332L46.5273 47.7187ZM52.269 46.7454L45.7257 33.332L52.269 46.7454Z" stroke="#FF9138" stroke-width="3" stroke-linecap="round" stroke-linejoin="round"/>
<path d="M41 56.668C41 59.3201 42.0536 61.8637 43.9289 63.739C45.8043 65.6144 48.3478 66.668 51 66.668C53.6522 66.668 56.1957 65.6144 58.0711 63.739C59.9464 61.8637 61 59.3201 61 56.668C61 54.0158 59.9464 51.4723 58.0711 49.5969C56.1957 47.7215 53.6522 46.668 51 46.668C48.3478 46.668 45.8043 47.7215 43.9289 49.5969C42.0536 51.4723 41 54.0158 41 56.668V56.668Z" stroke="#FF9138" stroke-width="3" stroke-linecap="round" stroke-linejoin="round"/>
</svg>
