<svg width="101" height="100" viewBox="0 0 101 100" fill="none" xmlns="http://www.w3.org/2000/svg">
<rect x="2.5" y="2" width="96" height="96" rx="18" fill="#3F0B71" stroke="#FF9138" stroke-width="4"/>
<path d="M57.6673 39.9987C57.6673 36.3168 54.6825 33.332 51.0007 33.332C47.3188 33.332 44.334 36.3168 44.334 39.9987V48.332C44.334 52.0139 47.3188 54.9987 51.0007 54.9987C54.6825 54.9987 57.6673 52.0139 57.6673 48.332V39.9987Z" stroke="#FF9138" stroke-width="3" stroke-linecap="round" stroke-linejoin="round"/>
<path d="M61 57.1523C59.7501 58.5726 58.2115 59.7099 56.4871 60.4882C54.7626 61.2665 52.892 61.6679 51 61.6657C49.108 61.6679 47.2374 61.2665 45.5129 60.4882C43.7885 59.7099 42.2499 58.5726 41 57.1523" stroke="#FF9138" stroke-width="3" stroke-linecap="round" stroke-linejoin="round"/>
<path d="M47.666 66.6641H54.3327M50.9993 61.6641V66.6641V61.6641Z" stroke="#FF9138" stroke-width="3" stroke-linecap="round" stroke-linejoin="round"/>
</svg>
