<svg width="80" height="80" viewBox="0 0 80 80" fill="none" xmlns="http://www.w3.org/2000/svg">
<path d="M53.4464 26.9937C50.798 24.3488 48.6714 21.2725 47.0666 17.765C45.4595 14.2575 44.656 11.0375 44.656 8.105C44.656 7.2425 44.9794 6.5088 45.6263 5.9039C46.2754 5.3013 47.079 5 48.0369 5C48.8821 5 49.6429 5.33005 50.319 5.99015C50.9952 6.65255 51.3897 7.4725 51.5024 8.45C51.8968 11.0375 52.6575 13.51 53.7845 15.8675C54.9115 18.225 56.3766 20.3237 58.1798 22.1637C59.9829 24.0037 62.0397 25.5126 64.35 26.6902C66.6603 27.8701 69.0833 28.6612 71.619 29.0637C72.577 29.1787 73.3794 29.5663 74.0263 30.2264C74.6754 30.8888 75 31.6513 75 32.5138C75 33.4913 74.7183 34.3112 74.1548 34.9736C73.5913 35.6337 72.8869 35.9638 72.0417 35.9638C69.1115 35.9638 65.9278 35.13 62.4905 33.4625C59.0532 31.795 56.0385 29.6388 53.4464 26.9937ZM62.9131 17.3337C61.448 15.8387 60.2929 14.2425 59.4476 12.5452C58.6024 10.85 58.1798 9.28375 58.1798 7.84625C58.1798 7.04125 58.5179 6.36505 59.194 5.81765C59.8702 5.27255 60.6873 5 61.6452 5C62.4341 5 63.125 5.3013 63.7178 5.9039C64.3083 6.5088 64.7726 7.3 65.1107 8.2775C65.3925 9.0825 65.7306 9.83 66.125 10.52C66.5194 11.21 67.0266 11.8713 67.6464 12.5037C68.2663 13.1362 68.9143 13.6388 69.5905 14.0114C70.2667 14.3863 70.9992 14.7175 71.7881 15.005C72.746 15.35 73.5214 15.8387 74.1142 16.4712C74.7047 17.1037 75 17.8225 75 18.6275C75 19.605 74.7329 20.4388 74.1987 21.1288C73.6623 21.8188 72.9996 22.1637 72.2107 22.1637C70.802 22.1637 69.2659 21.7325 67.6025 20.87C65.9413 20.0075 64.3782 18.8287 62.9131 17.3337ZM31.0476 46.4C27.3286 46.4 24.1448 45.0488 21.4964 42.3462C18.848 39.6437 17.5238 36.395 17.5238 32.6C17.5238 28.805 18.848 25.5563 21.4964 22.8538C24.1448 20.1513 27.3286 18.8 31.0476 18.8C34.7667 18.8 37.9504 20.1513 40.5988 22.8538C43.2472 25.5563 44.5714 28.805 44.5714 32.6C44.5714 36.395 43.2472 39.6437 40.5988 42.3462C37.9504 45.0488 34.7667 46.4 31.0476 46.4ZM10.7619 74C8.90238 74 7.31108 73.325 5.988 71.9749C4.66267 70.6225 4 68.9975 4 67.1V64.34C4 62.4425 4.47897 60.66 5.4369 58.9925C6.39484 57.325 7.71905 56.06 9.40952 55.1975C12.2833 53.7025 15.5234 52.4375 19.1298 51.4025C22.7361 50.3675 26.7087 49.85 31.0476 49.85C35.3865 49.85 39.3591 50.3675 42.9655 51.4025C46.5718 52.4375 49.8119 53.7025 52.6857 55.1975C54.3762 56.06 55.7004 57.325 56.6583 58.9925C57.6163 60.66 58.0952 62.4425 58.0952 64.34V67.1C58.0952 68.9975 57.4337 70.6225 56.1106 71.9749C54.7853 73.325 53.1929 74 51.3333 74H10.7619ZM10.7619 67.1H51.3333V64.34C51.3333 63.7075 51.1789 63.1325 50.8701 62.615C50.5591 62.0975 50.15 61.695 49.6429 61.4075C47.6143 60.3725 45.0087 59.3375 41.8261 58.3025C38.6412 57.2675 35.0484 56.75 31.0476 56.75C27.0468 56.75 23.454 57.2675 20.2691 58.3025C17.0865 59.3375 14.481 60.3725 12.4524 61.4075C11.9452 61.695 11.5373 62.0975 11.2285 62.615C10.9174 63.1325 10.7619 63.7075 10.7619 64.34V67.1ZM31.0476 39.5C32.9071 39.5 34.4996 38.8238 35.8249 37.4714C37.148 36.1213 37.8095 34.4975 37.8095 32.6C37.8095 30.7025 37.148 29.0775 35.8249 27.7251C34.4996 26.375 32.9071 25.7 31.0476 25.7C29.1881 25.7 27.5968 26.375 26.2737 27.7251C24.9484 29.0775 24.2857 30.7025 24.2857 32.6C24.2857 34.4975 24.9484 36.1213 26.2737 37.4714C27.5968 38.8238 29.1881 39.5 31.0476 39.5Z" fill="#FF9138"/>
</svg>
