<svg width="101" height="100" viewBox="0 0 101 100" fill="none" xmlns="http://www.w3.org/2000/svg">
<rect x="2.5" y="2" width="96" height="96" rx="18" fill="#3F0B71" stroke="#FF9138" stroke-width="4"/>
<path fill-rule="evenodd" clip-rule="evenodd" d="M57.5 67.5C60.1522 67.5 62.6957 66.4464 64.5711 64.5711C66.4464 62.6957 67.5 60.1522 67.5 57.5C67.5 54.8478 66.4464 52.3043 64.5711 50.4289C62.6957 48.5536 60.1522 47.5 57.5 47.5C54.8478 47.5 52.3043 48.5536 50.4289 50.4289C48.5536 52.3043 47.5 54.8478 47.5 57.5C47.5 60.1522 48.5536 62.6957 50.4289 64.5711C52.3043 66.4464 54.8478 67.5 57.5 67.5ZM70 57.5C70 60.8152 68.683 63.9946 66.3388 66.3388C63.9946 68.683 60.8152 70 57.5 70C54.1848 70 51.0054 68.683 48.6612 66.3388C46.317 63.9946 45 60.8152 45 57.5C45 54.1848 46.317 51.0054 48.6612 48.6612C51.0054 46.317 54.1848 45 57.5 45C60.8152 45 63.9946 46.317 66.3388 48.6612C68.683 51.0054 70 54.1848 70 57.5Z" fill="#FF9138"/>
<path d="M53.5943 59.86C53.7118 61.35 54.8893 62.51 57.0018 62.65V63.75H57.9393V62.6425C60.1268 62.49 61.4043 61.32 61.4043 59.625C61.4043 58.08 60.4293 57.285 58.6793 56.875L57.9393 56.7V53.7C58.8793 53.8075 59.4743 54.32 59.6168 55.03H61.2618C61.1443 53.5925 59.9118 52.47 57.9393 52.3475V51.25H57.0018V52.375C55.1343 52.5575 53.8643 53.68 53.8643 55.27C53.8643 56.675 54.8093 57.57 56.3818 57.935L57.0018 58.0875V61.2675C56.0418 61.1225 55.4043 60.5925 55.2618 59.86H53.5918H53.5943ZM56.9943 56.475C56.0718 56.2625 55.5718 55.825 55.5718 55.17C55.5718 54.435 56.1118 53.885 57.0018 53.725V56.475H56.9943ZM58.0743 58.34C59.1968 58.6 59.7118 59.02 59.7118 59.7625C59.7118 60.61 59.0693 61.19 57.9393 61.2975V58.31L58.0743 58.34Z" fill="#FF9138"/>
<path d="M32.5 30C31.837 30 31.2011 30.2634 30.7322 30.7322C30.2634 31.2011 30 31.837 30 32.5V52.5C30 53.163 30.2634 53.7989 30.7322 54.2678C31.2011 54.7366 31.837 55 32.5 55H42.7075C42.8525 54.14 43.07 53.305 43.3525 52.5H37.5C37.5 51.1739 36.9732 49.9021 36.0355 48.9645C35.0979 48.0268 33.8261 47.5 32.5 47.5V37.5C33.8261 37.5 35.0979 36.9732 36.0355 36.0355C36.9732 35.0979 37.5 33.8261 37.5 32.5H62.5C62.5 33.8261 63.0268 35.0979 63.9645 36.0355C64.9021 36.9732 66.1739 37.5 67.5 37.5V46.32C68.45 47.17 69.2925 48.14 70 49.205V32.5C70 31.837 69.7366 31.2011 69.2678 30.7322C68.7989 30.2634 68.163 30 67.5 30H32.5Z" fill="#FF9138"/>
<path d="M54.995 42.7045L55 42.497C54.9995 41.636 54.7766 40.7897 54.353 40.0401C53.9294 39.2905 53.3194 38.663 52.5821 38.2183C51.8448 37.7737 51.0051 37.527 50.1445 37.5021C49.2838 37.4772 48.4313 37.675 47.6695 38.0763C46.9077 38.4776 46.2625 39.0689 45.7963 39.7928C45.3301 40.5167 45.0588 41.3487 45.0085 42.2082C44.9583 43.0678 45.1309 43.9257 45.5095 44.699C45.8882 45.4723 46.4602 46.1347 47.17 46.622C49.3294 44.5652 52.0544 43.201 54.995 42.7045Z" fill="#FF9138"/>
</svg>
