<svg width="80" height="80" viewBox="0 0 80 80" fill="none" xmlns="http://www.w3.org/2000/svg">
<path d="M28.6406 50.3205L50.3205 28.6406" stroke="#FF9138" stroke-width="5" stroke-linecap="round" stroke-linejoin="round"/>
<path d="M30.4473 32.2539C31.4451 32.2539 32.2539 31.4451 32.2539 30.4473C32.2539 29.4495 31.4451 28.6406 30.4473 28.6406C29.4495 28.6406 28.6406 29.4495 28.6406 30.4473C28.6406 31.4451 29.4495 32.2539 30.4473 32.2539Z" fill="#FF9138" stroke="#FF9138" stroke-width="5" stroke-linecap="round" stroke-linejoin="round"/>
<path d="M48.5117 50.3164C49.5095 50.3164 50.3184 49.5076 50.3184 48.5098C50.3184 47.512 49.5095 46.7031 48.5117 46.7031C47.5139 46.7031 46.7051 47.512 46.7051 48.5098C46.7051 49.5076 47.5139 50.3164 48.5117 50.3164Z" fill="#FF9138" stroke="#FF9138" stroke-width="5" stroke-linecap="round" stroke-linejoin="round"/>
<path d="M14.186 22.1353C14.186 20.027 15.0235 18.005 16.5143 16.5143C18.005 15.0235 20.027 14.186 22.1353 14.186H25.7486C27.8476 14.1848 29.8609 13.3535 31.3492 11.8734L33.8786 9.34411C34.6173 8.60122 35.4956 8.01167 36.463 7.60939C37.4303 7.2071 38.4677 7 39.5153 7C40.563 7 41.6004 7.2071 42.5677 7.60939C43.5351 8.01167 44.4134 8.60122 45.1521 9.34411L47.6814 11.8734C49.1698 13.3535 51.1831 14.1848 53.2821 14.186H56.8954C59.0037 14.186 61.0256 15.0235 62.5164 16.5143C64.0072 18.005 64.8447 20.027 64.8447 22.1353V25.7486C64.8459 27.8476 65.6772 29.8609 67.1572 31.3492L69.6866 33.8786C70.4295 34.6173 71.019 35.4956 71.4213 36.463C71.8236 37.4303 72.0307 38.4677 72.0307 39.5153C72.0307 40.563 71.8236 41.6004 71.4213 42.5677C71.019 43.5351 70.4295 44.4134 69.6866 45.1521L67.1572 47.6814C65.6772 49.1698 64.8459 51.1831 64.8447 53.2821V56.8954C64.8447 59.0037 64.0072 61.0256 62.5164 62.5164C61.0256 64.0072 59.0037 64.8447 56.8954 64.8447H53.2821C51.1831 64.8459 49.1698 65.6772 47.6814 67.1572L45.1521 69.6866C44.4134 70.4295 43.5351 71.019 42.5677 71.4213C41.6004 71.8236 40.563 72.0307 39.5153 72.0307C38.4677 72.0307 37.4303 71.8236 36.463 71.4213C35.4956 71.019 34.6173 70.4295 33.8786 69.6866L31.3492 67.1572C29.8609 65.6772 27.8476 64.8459 25.7486 64.8447H22.1353C20.027 64.8447 18.005 64.0072 16.5143 62.5164C15.0235 61.0256 14.186 59.0037 14.186 56.8954V53.2821C14.1848 51.1831 13.3535 49.1698 11.8734 47.6814L9.34411 45.1521C8.60122 44.4134 8.01167 43.5351 7.60939 42.5677C7.2071 41.6004 7 40.563 7 39.5153C7 38.4677 7.2071 37.4303 7.60939 36.463C8.01167 35.4956 8.60122 34.6173 9.34411 33.8786L11.8734 31.3492C13.3535 29.8609 14.1848 27.8476 14.186 25.7486V22.1353" stroke="#FF9138" stroke-width="5" stroke-linecap="round" stroke-linejoin="round"/>
</svg>
