<svg width="80" height="80" viewBox="0 0 80 80" fill="none" xmlns="http://www.w3.org/2000/svg">
<path d="M56.0833 66.3333C55.1153 66.3333 54.3044 66.0053 53.6507 65.3493C52.9947 64.6956 52.6667 63.8847 52.6667 62.9167V52.6667H42.4167C41.4486 52.6667 40.6377 52.3387 39.984 51.6827C39.328 51.0289 39 50.2181 39 49.25C39 48.2819 39.328 47.4699 39.984 46.8139C40.6377 46.1602 41.4486 45.8333 42.4167 45.8333H52.6667V35.5833C52.6667 34.6153 52.9947 33.8032 53.6507 33.1472C54.3044 32.4935 55.1153 32.1667 56.0833 32.1667C57.0514 32.1667 57.8623 32.4935 58.516 33.1472C59.172 33.8032 59.5 34.6153 59.5 35.5833V45.8333H69.75C70.7181 45.8333 71.529 46.1602 72.1827 46.8139C72.8387 47.4699 73.1667 48.2819 73.1667 49.25C73.1667 50.2181 72.8387 51.0289 72.1827 51.6827C71.529 52.3387 70.7181 52.6667 69.75 52.6667H59.5V62.9167C59.5 63.8847 59.172 64.6956 58.516 65.3493C57.8623 66.0053 57.0514 66.3333 56.0833 66.3333ZM11.6667 52.6667C10.6986 52.6667 9.88772 52.3387 9.234 51.6827C8.578 51.0289 8.25 50.2181 8.25 49.25C8.25 48.2819 8.578 47.4699 9.234 46.8139C9.88772 46.1602 10.6986 45.8333 11.6667 45.8333H28.75C29.7181 45.8333 30.5301 46.1602 31.1861 46.8139C31.8398 47.4699 32.1667 48.2819 32.1667 49.25C32.1667 50.2181 31.8398 51.0289 31.1861 51.6827C30.5301 52.3387 29.7181 52.6667 28.75 52.6667H11.6667ZM11.6667 39C10.6986 39 9.88772 38.672 9.234 38.016C8.578 37.3623 8.25 36.5514 8.25 35.5833C8.25 34.6153 8.578 33.8032 9.234 33.1472C9.88772 32.4935 10.6986 32.1667 11.6667 32.1667H42.4167C43.3847 32.1667 44.1968 32.4935 44.8528 33.1472C45.5065 33.8032 45.8333 34.6153 45.8333 35.5833C45.8333 36.5514 45.5065 37.3623 44.8528 38.016C44.1968 38.672 43.3847 39 42.4167 39H11.6667ZM11.6667 25.3333C10.6986 25.3333 9.88772 25.0065 9.234 24.3527C8.578 23.6967 8.25 22.8847 8.25 21.9167C8.25 20.9486 8.578 20.1366 9.234 19.4806C9.88772 18.8269 10.6986 18.5 11.6667 18.5H42.4167C43.3847 18.5 44.1968 18.8269 44.8528 19.4806C45.5065 20.1366 45.8333 20.9486 45.8333 21.9167C45.8333 22.8847 45.5065 23.6967 44.8528 24.3527C44.1968 25.0065 43.3847 25.3333 42.4167 25.3333H11.6667Z" fill="#FF9138"/>
</svg>
