<svg width="80" height="80" viewBox="0 0 80 80" fill="none" xmlns="http://www.w3.org/2000/svg">
<path fill-rule="evenodd" clip-rule="evenodd" d="M37.1439 7.625C39.0436 7.45985 40.9541 7.45985 42.8539 7.625C43.0339 7.64 43.3939 7.805 43.5389 8.355L44.9839 13.88C45.7189 16.68 47.7339 18.715 49.9689 19.825C50.8389 20.255 51.6739 20.74 52.4739 21.275C54.5589 22.665 57.3239 23.39 60.1239 22.625L65.6339 21.11C66.1839 20.96 66.5089 21.19 66.6089 21.34C67.7039 22.89 68.6589 24.545 69.4739 26.285C69.5439 26.44 69.5839 26.835 69.1789 27.235L65.1039 31.265C63.0489 33.295 62.2939 36.05 62.4539 38.545C62.5155 39.514 62.5155 40.486 62.4539 41.455C62.2939 43.95 63.0489 46.705 65.1039 48.735L69.1789 52.765C69.5789 53.165 69.5439 53.56 69.4739 53.715C68.6663 55.4461 67.7076 57.1025 66.6089 58.665C66.5089 58.81 66.1789 59.035 65.6339 58.89L60.1189 57.375C57.3239 56.61 54.5589 57.335 52.4739 58.725C51.6739 59.26 50.8389 59.745 49.9739 60.175C47.7289 61.285 45.7189 63.315 44.9839 66.12L43.5389 71.645C43.3939 72.195 43.0339 72.36 42.8539 72.375C40.9541 72.5396 39.0436 72.5396 37.1439 72.375C36.9639 72.36 36.6039 72.19 36.4589 71.645L35.0139 66.12C34.2789 63.32 32.2639 61.285 30.0289 60.175C29.1636 59.7459 28.3269 59.2616 27.5239 58.725C25.4389 57.335 22.6739 56.61 19.8739 57.375L14.3639 58.89C13.8139 59.04 13.4889 58.81 13.3889 58.66C12.2903 57.0991 11.3316 55.4444 10.5239 53.715C10.4539 53.56 10.4139 53.165 10.8189 52.765L14.8939 48.735C16.9489 46.705 17.7039 43.95 17.5439 41.455C17.4823 40.486 17.4823 39.514 17.5439 38.545C17.7039 36.05 16.9489 33.295 14.8939 31.265L10.8189 27.235C10.4189 26.835 10.4539 26.44 10.5239 26.285C11.3301 24.5533 12.2889 22.8968 13.3889 21.335C13.4889 21.19 13.8189 20.96 14.3639 21.11L19.8789 22.625C22.6739 23.39 25.4389 22.665 27.5239 21.275C28.3239 20.74 29.1589 20.255 30.0239 19.825C32.2689 18.715 34.2789 16.685 35.0139 13.88L36.4589 8.355C36.6039 7.805 36.9639 7.64 37.1439 7.625ZM39.9989 0C38.8189 0 37.6489 0.05 36.4939 0.15C32.7789 0.475 30.0439 3.225 29.2039 6.455L27.7539 11.985C27.6689 12.315 27.3639 12.775 26.6989 13.105C25.5452 13.6759 24.4296 14.3206 23.3589 15.035C22.7439 15.445 22.1939 15.485 21.8589 15.39L16.3489 13.88C13.1289 12.995 9.38886 13.98 7.24886 17.03C5.89872 18.9508 4.72081 20.987 3.72886 23.115C2.15386 26.49 3.17386 30.225 5.54386 32.57L9.61886 36.6C9.86886 36.84 10.1089 37.335 10.0589 38.07C9.97715 39.3554 9.97715 40.6446 10.0589 41.93C10.1089 42.665 9.86886 43.16 9.61886 43.4L5.54386 47.43C3.17386 49.775 2.15386 53.51 3.72886 56.885C4.72886 59.025 5.90886 61.06 7.24886 62.975C9.38886 66.02 13.1289 67.005 16.3489 66.125L21.8639 64.61C22.1939 64.515 22.7439 64.555 23.3589 64.965C24.4239 65.68 25.5389 66.325 26.6989 66.895C27.3639 67.225 27.6689 67.685 27.7589 68.015L29.2039 73.545C30.0489 76.775 32.7789 79.525 36.4939 79.845C38.8261 80.0478 41.1716 80.0478 43.5039 79.845C47.2189 79.525 49.9539 76.775 50.7939 73.545L52.2439 68.015C52.3289 67.685 52.6339 67.225 53.2989 66.895C54.4526 66.3242 55.5682 65.6796 56.6389 64.965C57.2539 64.555 57.8039 64.515 58.1389 64.61L63.6489 66.12C66.8689 67.005 70.6089 66.02 72.7489 62.97C74.0889 61.06 75.2739 59.025 76.2689 56.885C77.8439 53.51 76.8239 49.775 74.4489 47.43L70.3789 43.4C70.1289 43.16 69.8889 42.665 69.9389 41.93C70.0204 40.6446 70.0204 39.3554 69.9389 38.07C69.8889 37.335 70.1339 36.84 70.3789 36.6L74.4489 32.57C76.8239 30.225 77.8439 26.49 76.2689 23.115C75.2768 20.9855 74.0989 18.9476 72.7489 17.025C70.6089 13.98 66.8689 12.995 63.6489 13.875L58.1339 15.39C57.8039 15.485 57.2539 15.445 56.6389 15.035C55.5682 14.3206 54.4525 13.6759 53.2989 13.105C52.6339 12.775 52.3289 12.315 52.2389 11.985L50.7989 6.45C49.9489 3.225 47.2189 0.475 43.5039 0.155C42.3383 0.0526912 41.1689 0.000975983 39.9989 0V0ZM47.4989 40C47.4989 41.9891 46.7087 43.8968 45.3022 45.3033C43.8956 46.7098 41.988 47.5 39.9989 47.5C38.0097 47.5 36.1021 46.7098 34.6956 45.3033C33.289 43.8968 32.4989 41.9891 32.4989 40C32.4989 38.0109 33.289 36.1032 34.6956 34.6967C36.1021 33.2902 38.0097 32.5 39.9989 32.5C41.988 32.5 43.8956 33.2902 45.3022 34.6967C46.7087 36.1032 47.4989 38.0109 47.4989 40ZM54.9989 40C54.9989 43.9782 53.4185 47.7936 50.6055 50.6066C47.7924 53.4197 43.9771 55 39.9989 55C36.0206 55 32.2053 53.4197 29.3923 50.6066C26.5792 47.7936 24.9989 43.9782 24.9989 40C24.9989 36.0218 26.5792 32.2064 29.3923 29.3934C32.2053 26.5804 36.0206 25 39.9989 25C43.9771 25 47.7924 26.5804 50.6055 29.3934C53.4185 32.2064 54.9989 36.0218 54.9989 40Z" fill="#FF9138"/>
</svg>
