<svg width="80" height="80" viewBox="0 0 80 80" fill="none" xmlns="http://www.w3.org/2000/svg">
<path d="M49.0005 21.0017C48.3897 21.6248 48.0476 22.4625 48.0476 23.3351C48.0476 24.2076 48.3897 25.0453 49.0005 25.6684L54.3338 31.0017C54.9569 31.6125 55.7946 31.9546 56.6672 31.9546C57.5397 31.9546 58.3774 31.6125 59.0005 31.0017L71.5672 18.4351C73.2433 22.139 73.7508 26.2658 73.022 30.2655C72.2933 34.2652 70.3629 37.9479 67.4881 40.8226C64.6133 43.6974 60.9307 45.6278 56.931 46.3566C52.9313 47.0853 48.8045 46.5778 45.1005 44.9017L22.0672 67.935C20.7411 69.2611 18.9425 70.0061 17.0672 70.0061C15.1918 70.0061 13.3932 69.2611 12.0672 67.935C10.7411 66.609 9.99609 64.8104 9.99609 62.935C9.99609 61.0597 10.7411 59.2611 12.0672 57.935L35.1005 34.9017C33.4244 31.1978 32.9169 27.0709 33.6456 23.0712C34.3744 19.0715 36.3048 15.3889 39.1796 12.5141C42.0543 9.63935 45.737 7.70895 49.7367 6.9802C53.7364 6.25144 57.8632 6.75894 61.5672 8.43506L49.0338 20.9684L49.0005 21.0017Z" stroke="#FF9138" stroke-width="6" stroke-linecap="round" stroke-linejoin="round"/>
</svg>
