<svg width="80" height="80" viewBox="0 0 80 80" fill="none" xmlns="http://www.w3.org/2000/svg">
<path d="M53.3333 66.6667C50.5556 66.6667 48.1944 65.6944 46.25 63.75C44.3056 61.8056 43.3333 59.4444 43.3333 56.6667C43.3333 53.8889 44.3056 51.5278 46.25 49.5833C48.1944 47.6389 50.5556 46.6667 53.3333 46.6667C53.9444 46.6667 54.5278 46.7078 55.0833 46.79C55.6389 46.8744 56.1667 47.0556 56.6667 47.3333V23.3333C56.6667 22.3889 56.9867 21.5967 57.6267 20.9567C58.2644 20.3189 59.0556 20 60 20H70C70.9444 20 71.7356 20.3189 72.3733 20.9567C73.0133 21.5967 73.3333 22.3889 73.3333 23.3333C73.3333 24.2778 73.0133 25.07 72.3733 25.71C71.7356 26.3478 70.9444 26.6667 70 26.6667H63.3333V56.6667C63.3333 59.4444 62.3611 61.8056 60.4167 63.75C58.4722 65.6944 56.1111 66.6667 53.3333 66.6667ZM13.3333 26.6667C12.3889 26.6667 11.5978 26.3478 10.96 25.71C10.32 25.07 10 24.2778 10 23.3333C10 22.3889 10.32 21.5967 10.96 20.9567C11.5978 20.3189 12.3889 20 13.3333 20H46.6667C47.6111 20 48.4033 20.3189 49.0433 20.9567C49.6811 21.5967 50 22.3889 50 23.3333C50 24.2778 49.6811 25.07 49.0433 25.71C48.4033 26.3478 47.6111 26.6667 46.6667 26.6667H13.3333ZM13.3333 40C12.3889 40 11.5978 39.68 10.96 39.04C10.32 38.4022 10 37.6111 10 36.6667C10 35.7222 10.32 34.93 10.96 34.29C11.5978 33.6522 12.3889 33.3333 13.3333 33.3333H46.6667C47.6111 33.3333 48.4033 33.6522 49.0433 34.29C49.6811 34.93 50 35.7222 50 36.6667C50 37.6111 49.6811 38.4022 49.0433 39.04C48.4033 39.68 47.6111 40 46.6667 40H13.3333ZM13.3333 53.3333C12.3889 53.3333 11.5978 53.0133 10.96 52.3733C10.32 51.7356 10 50.9444 10 50C10 49.0556 10.32 48.2633 10.96 47.6233C11.5978 46.9856 12.3889 46.6667 13.3333 46.6667H33.3333C34.2778 46.6667 35.07 46.9856 35.71 47.6233C36.3478 48.2633 36.6667 49.0556 36.6667 50C36.6667 50.9444 36.3478 51.7356 35.71 52.3733C35.07 53.0133 34.2778 53.3333 33.3333 53.3333H13.3333Z" fill="#FF9138"/>
</svg>
