<svg width="80" height="80" viewBox="0 0 80 80" fill="none" xmlns="http://www.w3.org/2000/svg">
<path d="M46.6667 46.6668V20.0002V46.6668ZM46.6667 46.6668L67.0067 58.2902C67.3106 58.4641 67.6549 58.5552 68.0051 58.5543C68.3553 58.5534 68.6992 58.4605 69.0022 58.285C69.3053 58.1095 69.557 57.8576 69.7321 57.5543C69.9072 57.251 69.9996 56.907 70 56.5568V10.1102C70.0001 9.75967 69.9082 9.4153 69.7333 9.11155C69.5584 8.8078 69.3068 8.55533 69.0037 8.37945C68.7005 8.20356 68.3564 8.11043 68.006 8.10938C67.6555 8.10834 67.3109 8.19942 67.0067 8.37349L46.6667 20.0002V46.6668ZM46.6667 46.6668H23.3333C19.7971 46.6668 16.4057 45.2621 13.9052 42.7616C11.4048 40.2611 10 36.8697 10 33.3335C10 29.7973 11.4048 26.4059 13.9052 23.9054C16.4057 21.4049 19.7971 20.0002 23.3333 20.0002H46.6667V46.6668ZM25.8567 64.3335L23.3333 46.6668H36.6667L38.9233 62.4668C39.1518 64.1906 38.6908 65.935 37.6405 67.3208C36.5902 68.7066 35.0354 69.6219 33.314 69.8678C31.5925 70.1137 29.8436 69.6704 28.4473 68.6341C27.0509 67.5978 26.12 66.0523 25.8567 64.3335V64.3335Z" stroke="#FF9138" stroke-width="5"/>
</svg>
