<svg width="80" height="80" viewBox="0 0 80 80" fill="none" xmlns="http://www.w3.org/2000/svg">
<path d="M70.0013 40.7333C70.0013 22.4333 55.8013 10 40.0013 10C24.368 10 10.0013 22.1667 10.0013 40.9333C8.0013 42.0667 6.66797 44.2 6.66797 46.6667V53.3333C6.66797 57 9.66797 60 13.3346 60H16.668V39.6667C16.668 26.7667 27.1013 16.3333 40.0013 16.3333C52.9013 16.3333 63.3346 26.7667 63.3346 39.6667V63.3333H36.668V70H63.3346C67.0013 70 70.0013 67 70.0013 63.3333V59.2667C71.968 58.2333 73.3346 56.2 73.3346 53.8V46.1333C73.3346 43.8 71.968 41.7667 70.0013 40.7333Z" fill="#FF9138"/>
<path d="M30.0013 46.6667C31.8422 46.6667 33.3346 45.1743 33.3346 43.3333C33.3346 41.4924 31.8422 40 30.0013 40C28.1604 40 26.668 41.4924 26.668 43.3333C26.668 45.1743 28.1604 46.6667 30.0013 46.6667Z" fill="#FF9138"/>
<path d="M50.0013 46.6667C51.8423 46.6667 53.3346 45.1743 53.3346 43.3333C53.3346 41.4924 51.8423 40 50.0013 40C48.1604 40 46.668 41.4924 46.668 43.3333C46.668 45.1743 48.1604 46.6667 50.0013 46.6667Z" fill="#FF9138"/>
<path d="M60.0015 36.7667C59.2067 32.0805 56.7796 27.8266 53.1497 24.7579C49.5198 21.6893 44.9213 20.0039 40.1682 20C30.0682 20 19.2015 28.3667 20.0682 41.5C24.1786 39.818 27.809 37.145 30.6356 33.7193C33.4622 30.2936 35.3973 26.2217 36.2682 21.8667C40.6349 30.6333 49.6015 36.6667 60.0015 36.7667Z" fill="#FF9138"/>
</svg>
