<svg width="80" height="80" viewBox="0 0 80 80" fill="none" xmlns="http://www.w3.org/2000/svg">
<path d="M52.9921 50.1875C54.8828 49.1719 57.0468 48.5938 59.3515 48.5938H59.3593C59.5937 48.5938 59.7031 48.3125 59.5312 48.1562C57.1344 46.0053 54.3965 44.268 51.4296 43.0156C51.3984 43 51.3671 42.9922 51.3359 42.9766C56.1875 39.4531 59.3437 33.7266 59.3437 27.2656C59.3437 16.5625 50.6875 7.89062 40.0078 7.89062C29.3281 7.89062 20.6796 16.5625 20.6796 27.2656C20.6796 33.7266 23.8359 39.4531 28.6953 42.9766C28.664 42.9922 28.6328 43 28.6015 43.0156C25.1093 44.4922 21.9765 46.6094 19.2812 49.3125C16.6015 51.9874 14.468 55.1583 13 58.6484C11.5555 62.0661 10.776 65.7278 10.7031 69.4375C10.701 69.5209 10.7156 69.6038 10.7461 69.6815C10.7766 69.7591 10.8223 69.8299 10.8805 69.8896C10.9388 69.9493 11.0084 69.9967 11.0852 70.0291C11.1621 70.0615 11.2447 70.0782 11.3281 70.0781H16.0078C16.3437 70.0781 16.625 69.8047 16.6328 69.4688C16.789 63.4375 19.2031 57.7891 23.4765 53.5078C27.8906 49.0781 33.7656 46.6406 40.0156 46.6406C44.4453 46.6406 48.6953 47.8672 52.3593 50.1641C52.4535 50.2232 52.5615 50.2565 52.6726 50.2606C52.7837 50.2647 52.8939 50.2395 52.9921 50.1875ZM40.0156 40.7031C36.4375 40.7031 33.0703 39.3047 30.5312 36.7656C29.2819 35.5196 28.2916 34.0387 27.6171 32.4083C26.9427 30.7778 26.5975 29.0301 26.6015 27.2656C26.6015 23.6797 28 20.3047 30.5312 17.7656C33.0625 15.2266 36.4296 13.8281 40.0156 13.8281C43.6015 13.8281 46.9609 15.2266 49.5 17.7656C50.7492 19.0116 51.7396 20.4925 52.414 22.123C53.0885 23.7534 53.4336 25.5012 53.4296 27.2656C53.4296 30.8516 52.0312 34.2266 49.5 36.7656C46.9609 39.3047 43.5937 40.7031 40.0156 40.7031ZM68.75 59.2969H62.1875V52.7344C62.1875 52.3906 61.9062 52.1094 61.5625 52.1094H57.1875C56.8437 52.1094 56.5625 52.3906 56.5625 52.7344V59.2969H50C49.6562 59.2969 49.375 59.5781 49.375 59.9219V64.2969C49.375 64.6406 49.6562 64.9219 50 64.9219H56.5625V71.4844C56.5625 71.8281 56.8437 72.1094 57.1875 72.1094H61.5625C61.9062 72.1094 62.1875 71.8281 62.1875 71.4844V64.9219H68.75C69.0937 64.9219 69.375 64.6406 69.375 64.2969V59.9219C69.375 59.5781 69.0937 59.2969 68.75 59.2969Z" fill="#FF9138"/>
</svg>
