<svg width="80" height="80" viewBox="0 0 80 80" fill="none" xmlns="http://www.w3.org/2000/svg">
<path d="M72.5 11.25H7.5C6.17437 11.2515 4.90347 11.7788 3.96611 12.7161C3.02875 13.6535 2.50149 14.9244 2.5 16.25V63.75C2.50149 65.0756 3.02875 66.3465 3.96611 67.2839C4.90347 68.2212 6.17437 68.7485 7.5 68.75H72.5C73.8256 68.7485 75.0965 68.2212 76.0339 67.2839C76.9712 66.3465 77.4985 65.0756 77.5 63.75V16.25C77.4985 14.9244 76.9712 13.6535 76.0339 12.7161C75.0965 11.7788 73.8256 11.2515 72.5 11.25ZM72.5 63.75H7.5V16.25H72.5L72.5031 63.75H72.5Z" fill="#FF9138"/>
<path d="M36.2503 28.75H65.0003V33.75H36.2503V28.75ZM27.5003 40H65.0003V45H27.5003V40ZM27.5003 51.25H65.0003V56.25H27.5003V51.25ZM13.8945 22.5V42.6442L29.3902 31.7973L13.8945 22.5Z" fill="#FF9138"/>
</svg>
