<svg width="80" height="80" viewBox="0 0 80 80" fill="none" xmlns="http://www.w3.org/2000/svg">
<path d="M67.5 29.9944C67.5043 25.3597 66.3372 20.799 64.107 16.7361C61.8768 12.6732 58.6559 9.23983 54.7435 6.755C50.8312 4.27017 46.3542 2.81447 41.7286 2.52314C37.103 2.2318 32.4788 3.11428 28.2856 5.08859C24.0924 7.0629 20.4662 10.065 17.7438 13.816C15.0215 17.567 13.2913 21.9452 12.7141 26.5439C12.1369 31.1425 12.7313 35.8125 14.4422 40.1199C16.153 44.4274 18.9248 48.2326 22.5 51.182V74.9945C22.4974 75.4211 22.6055 75.8411 22.8136 76.2135C23.0217 76.5859 23.3228 76.898 23.6875 77.1195C24.0492 77.3469 24.4632 77.4777 24.89 77.4996C25.3167 77.5215 25.7419 77.4337 26.125 77.2445L40 70.2757L53.875 77.2445C54.2298 77.4012 54.6122 77.4862 55 77.4945C55.663 77.4945 56.2989 77.2311 56.7678 76.7622C57.2366 76.2934 57.5 75.6575 57.5 74.9945V51.182C60.6275 48.6075 63.1462 45.3725 64.8752 41.7092C66.6042 38.0459 67.5006 34.0453 67.5 29.9944ZM17.5 29.9944C17.5 25.5444 18.8196 21.1942 21.2919 17.4941C23.7643 13.794 27.2783 10.9101 31.3896 9.20716C35.501 7.50419 40.025 7.05861 44.3895 7.92678C48.7541 8.79495 52.7632 10.9379 55.9099 14.0845C59.0566 17.2312 61.1995 21.2403 62.0677 25.6049C62.9358 29.9695 62.4903 34.4935 60.7873 38.6048C59.0843 42.7162 56.2004 46.2302 52.5003 48.7025C48.8002 51.1749 44.4501 52.4945 40 52.4945C34.0352 52.4862 28.317 50.113 24.0992 45.8952C19.8814 41.6774 17.5083 35.9593 17.5 29.9944ZM52.5 70.9632L41.125 65.2445C40.774 65.0755 40.3895 64.9878 40 64.9878C39.6105 64.9878 39.226 65.0755 38.875 65.2445L27.5 70.9632V54.4944C31.3714 56.4673 35.6549 57.4957 40 57.4957C44.3451 57.4957 48.6285 56.4673 52.5 54.4944V70.9632ZM40 47.4945C43.4612 47.4945 46.8446 46.4681 49.7225 44.5452C52.6003 42.6222 54.8434 39.8891 56.1679 36.6914C57.4924 33.4937 57.839 29.975 57.1637 26.5804C56.4885 23.1857 54.8218 20.0675 52.3744 17.6201C49.9269 15.1727 46.8087 13.5059 43.4141 12.8307C40.0194 12.1555 36.5007 12.502 33.303 13.8266C30.1053 15.1511 27.3722 17.3941 25.4493 20.272C23.5264 23.1498 22.5 26.5333 22.5 29.9944C22.5 34.6357 24.3437 39.0869 27.6256 42.3688C30.9075 45.6507 35.3587 47.4945 40 47.4945ZM40 17.4944C42.4723 17.4944 44.889 18.2276 46.9446 19.6011C49.0002 20.9746 50.6024 22.9268 51.5485 25.2109C52.4946 27.495 52.7421 30.0083 52.2598 32.4331C51.7775 34.8578 50.587 37.0851 48.8388 38.8333C47.0907 40.5814 44.8634 41.7719 42.4386 42.2543C40.0139 42.7366 37.5005 42.489 35.2165 41.5429C32.9324 40.5968 30.9801 38.9947 29.6066 36.9391C28.2331 34.8835 27.5 32.4667 27.5 29.9944C27.5082 26.6818 28.8279 23.5071 31.1703 21.1647C33.5127 18.8223 36.6873 17.5027 40 17.4944Z" fill="#FF9138"/>
</svg>
