<svg width="80" height="80" viewBox="0 0 80 80" fill="none" xmlns="http://www.w3.org/2000/svg">
<path d="M34.2105 12C37.9515 12 41.5392 13.475 44.1845 16.1005C46.8297 18.726 48.3158 22.287 48.3158 26C48.3158 29.713 46.8297 33.274 44.1845 35.8995C41.5392 38.525 37.9515 40 34.2105 40C30.4696 40 26.8818 38.525 24.2366 35.8995C21.5913 33.274 20.1053 29.713 20.1053 26C20.1053 22.287 21.5913 18.726 24.2366 16.1005C26.8818 13.475 30.4696 12 34.2105 12V12ZM34.2105 19C32.3401 19 30.5462 19.7375 29.2236 21.0503C27.9009 22.363 27.1579 24.1435 27.1579 26C27.1579 27.8565 27.9009 29.637 29.2236 30.9497C30.5462 32.2625 32.3401 33 34.2105 33C36.081 33 37.8749 32.2625 39.1975 30.9497C40.5201 29.637 41.2632 27.8565 41.2632 26C41.2632 24.1435 40.5201 22.363 39.1975 21.0503C37.8749 19.7375 36.081 19 34.2105 19V19ZM34.2105 43.5C38.0895 43.5 43.5905 44.305 48.7037 45.915C46.5526 47.245 44.7895 49.1 43.4142 51.305C40.5226 50.605 37.3489 50.15 34.2105 50.15C23.7374 50.15 12.7 55.26 12.7 57.5V61.35H41.4042C41.7216 63.8 42.6032 66.04 43.9432 68H6V57.5C6 48.19 24.7953 43.5 34.2105 43.5ZM60.6579 33H73V40H65.9474V59.25C65.9474 61.5706 65.0186 63.7962 63.3653 65.4372C61.712 67.0781 59.4697 68 57.1316 68C54.7935 68 52.5512 67.0781 50.8979 65.4372C49.2446 63.7962 48.3158 61.5706 48.3158 59.25C48.3158 56.9294 49.2446 54.7038 50.8979 53.0628C52.5512 51.4219 54.7935 50.5 57.1316 50.5C58.4011 50.5 59.5647 50.745 60.6579 51.235V33Z" fill="#FF9138"/>
</svg>
