<svg width="80" height="80" viewBox="0 0 80 80" fill="none" xmlns="http://www.w3.org/2000/svg">
<path d="M63.334 30H71.6673M8.33398 70H16.6673H8.33398ZM8.33398 60H16.6673H8.33398ZM8.33398 50H16.6673H8.33398ZM8.33398 40H16.6673H8.33398ZM26.6673 70H35.0007H26.6673ZM26.6673 60H35.0007H26.6673ZM26.6673 50H35.0007H26.6673ZM26.6673 40H35.0007H26.6673ZM26.6673 30H35.0007H26.6673ZM26.6673 20H35.0007H26.6673ZM26.6673 10H35.0007H26.6673ZM45.0007 70H53.334H45.0007ZM63.334 70H71.6673H63.334ZM45.0007 60H53.334H45.0007ZM63.334 60H71.6673H63.334ZM45.0007 50H53.334H45.0007ZM63.334 50H71.6673H63.334ZM63.334 40H71.6673H63.334Z" stroke="#FF9138" stroke-width="5" stroke-linecap="round" stroke-linejoin="round"/>
</svg>
