<svg width="80" height="80" viewBox="0 0 80 80" fill="none" xmlns="http://www.w3.org/2000/svg">
<path d="M72.5 77.4964C71.9318 77.4962 71.3806 77.3022 70.9375 76.9464L59.125 67.4964H50C49.337 67.4964 48.7011 67.233 48.2322 66.7642C47.7634 66.2954 47.5 65.6595 47.5 64.9964V52.4964C47.5 51.8334 47.7634 51.1975 48.2322 50.7287C48.7011 50.2598 49.337 49.9964 50 49.9964H59.125L70.94 40.5464C71.3076 40.2529 71.7506 40.069 72.218 40.016C72.6854 39.9629 73.1583 40.0428 73.5824 40.2465C74.0064 40.4501 74.3644 40.7693 74.6152 41.1673C74.8659 41.5653 74.9993 42.026 75 42.4964V74.9964C75 75.6595 74.7366 76.2954 74.2678 76.7642C73.7989 77.233 73.163 77.4964 72.5 77.4964ZM52.5 62.4964H60C60.5682 62.4969 61.1193 62.6909 61.5625 63.0464L70 69.7964V47.6964L61.56 54.4464C61.1175 54.8015 60.5673 54.9954 60 54.9964H52.5V62.4964Z" fill="#FF9138"/>
<path d="M40 70.0008H20V10.0008H40V25.0009C40.004 26.3257 40.532 27.5952 41.4688 28.532C42.4057 29.4688 43.6751 29.9969 45 30.0009H60V37.5009H65V25.0009C65.0088 24.6723 64.9463 24.3457 64.8169 24.0436C64.6874 23.7415 64.494 23.4711 64.25 23.2509L46.75 5.75085C46.5299 5.50671 46.2595 5.31323 45.9573 5.18374C45.6552 5.05426 45.3286 4.99186 45 5.00085H20C18.6751 5.00481 17.4057 5.53286 16.4688 6.46969C15.532 7.40651 15.004 8.67598 15 10.0008V70.0008C15.004 71.3257 15.532 72.5952 16.4688 73.532C17.4057 74.4688 18.6751 74.9969 20 75.0008H40V70.0008ZM45 11.0009L59 25.0009H45V11.0009Z" fill="#FF9138"/>
</svg>
