<svg width="80" height="80" viewBox="0 0 80 80" fill="none" xmlns="http://www.w3.org/2000/svg">
<path d="M75 60V55H69.7475C69.4251 53.4351 68.8037 51.947 67.9175 50.6175L71.6425 46.8925L68.1075 43.3575L64.3825 47.0825C63.053 46.1963 61.5649 45.5749 60 45.2525V40H55V45.2525C53.4351 45.5749 51.947 46.1963 50.6175 47.0825L46.8925 43.3575L43.3575 46.8925L47.0825 50.6175C46.1963 51.947 45.5749 53.4351 45.2525 55H40V60H45.2525C45.5749 61.5649 46.1963 63.053 47.0825 64.3825L43.3575 68.1075L46.8925 71.6425L50.6175 67.9175C51.947 68.8037 53.4351 69.4251 55 69.7475V75H60V69.7475C61.5649 69.4251 63.053 68.8037 64.3825 67.9175L68.1075 71.6425L71.6425 68.1075L67.9175 64.3825C68.8037 63.053 69.4251 61.5649 69.7475 60H75ZM57.5 65C56.0166 65 54.5666 64.5601 53.3332 63.736C52.0999 62.9119 51.1386 61.7406 50.5709 60.3701C50.0032 58.9997 49.8547 57.4917 50.1441 56.0368C50.4335 54.582 51.1478 53.2456 52.1967 52.1967C53.2456 51.1478 54.582 50.4335 56.0368 50.1441C57.4917 49.8547 58.9997 50.0032 60.3701 50.5709C61.7406 51.1386 62.9119 52.0999 63.736 53.3332C64.5601 54.5666 65 56.0166 65 57.5C64.998 59.4885 64.2072 61.395 62.8011 62.8011C61.395 64.2072 59.4885 64.998 57.5 65Z" fill="#FF9138"/>
<path d="M70 10H10C8.67432 10.0013 7.40332 10.5285 6.46593 11.4659C5.52853 12.4033 5.00132 13.6743 5 15V65C5.00132 66.3257 5.52853 67.5967 6.46593 68.5341C7.40332 69.4715 8.67432 69.9987 10 70H35V65H10V30H70V37.5H75V15C74.9987 13.6743 74.4715 12.4033 73.5341 11.4659C72.5967 10.5285 71.3257 10.0013 70 10ZM70 25H10V15H70V25Z" fill="#FF9138"/>
<path d="M50 22.5C51.3807 22.5 52.5 21.3807 52.5 20C52.5 18.6193 51.3807 17.5 50 17.5C48.6193 17.5 47.5 18.6193 47.5 20C47.5 21.3807 48.6193 22.5 50 22.5Z" fill="#FF9138"/>
<path d="M57.5 22.5C58.8807 22.5 60 21.3807 60 20C60 18.6193 58.8807 17.5 57.5 17.5C56.1193 17.5 55 18.6193 55 20C55 21.3807 56.1193 22.5 57.5 22.5Z" fill="#FF9138"/>
<path d="M65 22.5C66.3807 22.5 67.5 21.3807 67.5 20C67.5 18.6193 66.3807 17.5 65 17.5C63.6193 17.5 62.5 18.6193 62.5 20C62.5 21.3807 63.6193 22.5 65 22.5Z" fill="#FF9138"/>
</svg>
