<svg width="80" height="80" viewBox="0 0 80 80" fill="none" xmlns="http://www.w3.org/2000/svg">
<g clip-path="url(#clip0_2548_44877)">
<path d="M34.668 8.00477L32.78 6.11677C32.5325 6.36487 32.3363 6.65931 32.2027 6.98327C32.0691 7.30723 32.0007 7.65434 32.0013 8.00477H34.668ZM40.0013 2.67143L41.8893 0.783434C41.6416 0.535096 41.3473 0.338068 41.0233 0.203633C40.6994 0.069199 40.3521 0 40.0013 0C39.6505 0 39.3032 0.069199 38.9793 0.203633C38.6553 0.338068 38.361 0.535096 38.1133 0.783434L40.0013 2.67143ZM45.3346 8.00477H48.0013C48.0019 7.65434 47.9335 7.30723 47.7999 6.98327C47.6663 6.65931 47.4701 6.36487 47.2226 6.11677L45.3346 8.00477ZM34.668 48.0048H45.3346V42.6714H34.668V48.0048ZM48.0013 50.6714V66.6714H53.3346V50.6714H48.0013ZM45.3346 69.3381H34.668V74.6714H45.3346V69.3381ZM32.0013 66.6714V50.6714H26.668V66.6714H32.0013ZM34.668 69.3381C33.9607 69.3381 33.2824 69.0572 32.7824 68.5571C32.2823 68.057 32.0013 67.3787 32.0013 66.6714H26.668C26.668 68.7932 27.5108 70.828 29.0111 72.3283C30.5114 73.8286 32.5462 74.6714 34.668 74.6714V69.3381ZM48.0013 66.6714C48.0013 67.3787 47.7204 68.057 47.2203 68.5571C46.7202 69.0572 46.0419 69.3381 45.3346 69.3381V74.6714C47.4564 74.6714 49.4912 73.8286 50.9915 72.3283C52.4918 70.828 53.3346 68.7932 53.3346 66.6714H48.0013ZM45.3346 48.0048C46.0419 48.0048 46.7202 48.2857 47.2203 48.7858C47.7204 49.2859 48.0013 49.9642 48.0013 50.6714H53.3346C53.3346 48.5497 52.4918 46.5149 50.9915 45.0146C49.4912 43.5143 47.4564 42.6714 45.3346 42.6714V48.0048ZM34.668 42.6714C32.5462 42.6714 30.5114 43.5143 29.0111 45.0146C27.5108 46.5149 26.668 48.5497 26.668 50.6714H32.0013C32.0013 49.9642 32.2823 49.2859 32.7824 48.7858C33.2824 48.2857 33.9607 48.0048 34.668 48.0048V42.6714ZM37.3346 45.3381V18.6714H32.0013V45.3381H37.3346ZM34.668 21.3381H45.3346V16.0048H34.668V21.3381ZM42.668 18.6714V45.3381H48.0013V18.6714H42.668ZM37.3346 69.3381V80.0048H42.668V69.3381H37.3346ZM37.3346 18.6714V8.00477H32.0013V18.6714H37.3346ZM36.556 9.89277L41.8893 4.55943L38.1133 0.783434L32.78 6.11677L36.556 9.89277ZM38.1133 4.55943L43.4466 9.89277L47.2226 6.11677L41.8893 0.783434L38.1133 4.55943ZM42.668 8.00477V18.6714H48.0013V8.00477H42.668Z" fill="#FF9138"/>
</g>
<defs>
<clipPath id="clip0_2548_44877">
<rect width="80" height="80" fill="white"/>
</clipPath>
</defs>
</svg>
