<svg width="100" height="100" viewBox="0 0 100 100" fill="none" xmlns="http://www.w3.org/2000/svg">
<rect x="2" y="2" width="96" height="96" rx="18" stroke="#FF9138" stroke-width="4"/>
<path d="M58.943 33.1246C58.6057 33.197 58.3048 33.3863 58.0936 33.6591C57.8825 33.932 57.7746 34.2707 57.7892 34.6154V63.8462C57.7549 64.0553 57.7665 64.2694 57.8232 64.4736C57.88 64.6778 57.9804 64.8672 58.1176 65.0287C58.2548 65.1902 58.4255 65.32 58.6178 65.409C58.8102 65.4979 59.0196 65.544 59.2315 65.544C59.4434 65.544 59.6528 65.4979 59.8451 65.409C60.0375 65.32 60.2082 65.1902 60.3454 65.0287C60.4826 64.8672 60.583 64.6778 60.6397 64.4736C60.6964 64.2694 60.7081 64.0553 60.6738 63.8462V34.6154C60.6787 34.4099 60.6402 34.2057 60.5608 34.0162C60.4814 33.8266 60.3629 33.6559 60.2131 33.5152C60.0633 33.3745 59.8854 33.267 59.6912 33.1997C59.4971 33.1324 59.2908 33.1068 59.0861 33.1246C59.0384 33.1223 58.9907 33.1223 58.943 33.1246ZM40.4815 34.6631C40.1441 34.7354 39.8433 34.9248 39.6321 35.1976C39.4209 35.4704 39.3131 35.8092 39.3276 36.1539V62.3077C39.2934 62.5168 39.305 62.7309 39.3617 62.9351C39.4184 63.1393 39.5189 63.3287 39.6561 63.4903C39.7933 63.6518 39.964 63.7815 40.1563 63.8705C40.3486 63.9595 40.558 64.0056 40.7699 64.0056C40.9819 64.0056 41.1913 63.9595 41.3836 63.8705C41.5759 63.7815 41.7466 63.6518 41.8838 63.4903C42.021 63.3287 42.1215 63.1393 42.1782 62.9351C42.2349 62.7309 42.2465 62.5168 42.2123 62.3077V36.1539C42.2171 35.9484 42.1786 35.7442 42.0992 35.5546C42.0199 35.3651 41.9014 35.1944 41.7516 35.0537C41.6017 34.913 41.4239 34.8055 41.2297 34.7382C41.0355 34.6709 40.8293 34.6453 40.6246 34.6631C40.5769 34.6608 40.5291 34.6608 40.4815 34.6631ZM54.3276 39.2785C53.9903 39.3508 53.6894 39.5401 53.4782 39.813C53.2671 40.0858 53.1592 40.4245 53.1738 40.7692V57.6923C53.1388 57.9017 53.1498 58.1163 53.2062 58.321C53.2625 58.5257 53.3627 58.7157 53.4999 58.8777C53.6371 59.0398 53.808 59.17 54.0006 59.2593C54.1932 59.3486 54.403 59.3948 54.6153 59.3948C54.8276 59.3948 55.0374 59.3486 55.23 59.2593C55.4227 59.17 55.5935 59.0398 55.7307 58.8777C55.8679 58.7157 55.9682 58.5257 56.0245 58.321C56.0808 58.1163 56.0919 57.9017 56.0569 57.6923V40.7692C56.0617 40.5641 56.0233 40.3602 55.9441 40.1708C55.8649 39.9815 55.7467 39.8109 55.5972 39.6703C55.4477 39.5297 55.2703 39.4221 55.0765 39.3546C54.8826 39.2871 54.6768 39.2611 54.4722 39.2785C54.4236 39.276 54.3748 39.276 54.3261 39.2785H54.3276ZM35.8661 40.8169C35.5288 40.8893 35.2279 41.0786 35.0167 41.3514C34.8055 41.6243 34.6977 41.963 34.7123 42.3077V56.1539C34.6772 56.3633 34.6883 56.5778 34.7446 56.7825C34.8009 56.9872 34.9012 57.1772 35.0384 57.3393C35.1756 57.5013 35.3464 57.6315 35.5391 57.7208C35.7317 57.8101 35.9415 57.8564 36.1538 57.8564C36.3661 57.8564 36.5759 57.8101 36.7685 57.7208C36.9611 57.6315 37.132 57.5013 37.2692 57.3393C37.4064 57.1772 37.5066 56.9872 37.563 56.7825C37.6193 56.5778 37.6303 56.3633 37.5953 56.1539V42.3077C37.6002 42.1025 37.5617 41.8986 37.4825 41.7093C37.4033 41.5199 37.2851 41.3494 37.1357 41.2087C36.9862 41.0681 36.8087 40.9605 36.6149 40.893C36.4211 40.8255 36.2152 40.7996 36.0107 40.8169C35.962 40.8145 35.9132 40.8145 35.8646 40.8169H35.8661ZM45.0969 42.3554C44.7595 42.4277 44.4586 42.6171 44.2475 42.8899C44.0363 43.1627 43.9285 43.5015 43.943 43.8462V54.6154C43.908 54.8248 43.9191 55.0393 43.9754 55.2441C44.0317 55.4488 44.132 55.6388 44.2692 55.8008C44.4064 55.9628 44.5772 56.093 44.7698 56.1823C44.9625 56.2716 45.1722 56.3179 45.3846 56.3179C45.5969 56.3179 45.8067 56.2716 45.9993 56.1823C46.1919 56.093 46.3628 55.9628 46.5 55.8008C46.6372 55.6388 46.7374 55.4488 46.7937 55.2441C46.8501 55.0393 46.8611 54.8248 46.8261 54.6154V43.8462C46.8309 43.641 46.7925 43.4371 46.7133 43.2477C46.6341 43.0584 46.5159 42.8878 46.3664 42.7472C46.2169 42.6066 46.0395 42.499 45.8457 42.4315C45.6519 42.364 45.446 42.3381 45.2415 42.3554C45.1928 42.353 45.144 42.353 45.0953 42.3554H45.0969ZM63.5584 42.3554C63.2211 42.4277 62.9202 42.6171 62.709 42.8899C62.4978 43.1627 62.39 43.5015 62.4046 43.8462V54.6154C62.3703 54.8245 62.3819 55.0386 62.4386 55.2428C62.4953 55.447 62.5958 55.6364 62.733 55.7979C62.8702 55.9595 63.0409 56.0892 63.2332 56.1782C63.4255 56.2672 63.6349 56.3133 63.8469 56.3133C64.0588 56.3133 64.2682 56.2672 64.4605 56.1782C64.6529 56.0892 64.8235 55.9595 64.9607 55.7979C65.0979 55.6364 65.1984 55.447 65.2551 55.2428C65.3118 55.0386 65.3234 54.8245 65.2892 54.6154V43.8462C65.2941 43.6407 65.2555 43.4365 65.1762 43.2469C65.0968 43.0574 64.9783 42.8867 64.8285 42.746C64.6786 42.6053 64.5008 42.4978 64.3066 42.4305C64.1124 42.3632 63.9062 42.3376 63.7015 42.3554C63.6538 42.3531 63.6061 42.3531 63.5584 42.3554ZM31.2507 45.4323C30.9134 45.5047 30.6125 45.694 30.4013 45.9668C30.1901 46.2396 30.0823 46.5784 30.0969 46.9231V51.5385C30.0626 51.7476 30.0742 51.9617 30.1309 52.1659C30.1876 52.3701 30.2881 52.5595 30.4253 52.721C30.5625 52.8825 30.7332 53.0123 30.9255 53.1013C31.1179 53.1902 31.3273 53.2363 31.5392 53.2363C31.7511 53.2363 31.9605 53.1902 32.1528 53.1013C32.3452 53.0123 32.5159 52.8825 32.6531 52.721C32.7903 52.5595 32.8907 52.3701 32.9474 52.1659C33.0041 51.9617 33.0157 51.7476 32.9815 51.5385V46.9231C32.9864 46.7176 32.9479 46.5134 32.8685 46.3239C32.7891 46.1343 32.6706 45.9636 32.5208 45.8229C32.371 45.6822 32.1931 45.5747 31.9989 45.5074C31.8048 45.4401 31.5985 45.4145 31.3938 45.4323C31.3456 45.4299 31.2974 45.4299 31.2492 45.4323H31.2507ZM49.7122 45.4323C49.3749 45.5047 49.074 45.694 48.8629 45.9668C48.6517 46.2396 48.5438 46.5784 48.5584 46.9231V51.5385C48.5234 51.7479 48.5344 51.9624 48.5908 52.1671C48.6471 52.3719 48.7473 52.5618 48.8845 52.7239C49.0217 52.8859 49.1926 53.0161 49.3852 53.1054C49.5779 53.1947 49.7876 53.241 49.9999 53.241C50.2123 53.241 50.422 53.1947 50.6147 53.1054C50.8073 53.0161 50.9781 52.8859 51.1154 52.7239C51.2526 52.5618 51.3528 52.3719 51.4091 52.1671C51.4654 51.9624 51.4765 51.7479 51.4415 51.5385V46.9231C51.4463 46.7179 51.4079 46.514 51.3287 46.3247C51.2495 46.1353 51.1313 45.9648 50.9818 45.8241C50.8323 45.6835 50.6549 45.5759 50.4611 45.5084C50.2672 45.4409 50.0614 45.415 49.8569 45.4323C49.8082 45.4299 49.7594 45.4299 49.7107 45.4323H49.7122ZM68.1738 45.4323C67.8364 45.5047 67.5356 45.694 67.3244 45.9668C67.1132 46.2396 67.0054 46.5784 67.0199 46.9231V51.5385C66.9857 51.7476 66.9973 51.9617 67.054 52.1659C67.1107 52.3701 67.2112 52.5595 67.3484 52.721C67.4856 52.8825 67.6563 53.0123 67.8486 53.1013C68.0409 53.1902 68.2503 53.2363 68.4622 53.2363C68.6742 53.2363 68.8836 53.1902 69.0759 53.1013C69.2682 53.0123 69.4389 52.8825 69.5761 52.721C69.7133 52.5595 69.8138 52.3701 69.8705 52.1659C69.9272 51.9617 69.9388 51.7476 69.9046 51.5385V46.9231C69.9094 46.7176 69.8709 46.5134 69.7915 46.3239C69.7122 46.1343 69.5937 45.9636 69.4439 45.8229C69.294 45.6822 69.1162 45.5747 68.922 45.5074C68.7278 45.4401 68.5216 45.4145 68.3169 45.4323C68.2692 45.43 68.2215 45.43 68.1738 45.4323Z" fill="#FF9138"/>
</svg>
