<svg width="100" height="100" viewBox="0 0 100 100" fill="none" xmlns="http://www.w3.org/2000/svg">
<rect x="2" y="2" width="96" height="96" rx="18" stroke="#FF9138" stroke-width="4"/>
<path d="M67.5 60V57.5H64.8738C64.7125 56.7175 64.4019 55.9735 63.9587 55.3087L65.8212 53.4462L64.0538 51.6788L62.1912 53.5413C61.5265 53.0981 60.7825 52.7875 60 52.6262V50H57.5V52.6262C56.7175 52.7875 55.9735 53.0981 55.3087 53.5413L53.4462 51.6788L51.6788 53.4462L53.5413 55.3087C53.0981 55.9735 52.7875 56.7175 52.6262 57.5H50V60H52.6262C52.7875 60.7825 53.0981 61.5265 53.5413 62.1912L51.6788 64.0538L53.4462 65.8212L55.3087 63.9587C55.9735 64.4019 56.7175 64.7125 57.5 64.8738V67.5H60V64.8738C60.7825 64.7125 61.5265 64.4019 62.1912 63.9587L64.0538 65.8212L65.8212 64.0538L63.9587 62.1912C64.4019 61.5265 64.7125 60.7825 64.8738 60H67.5ZM58.75 62.5C58.0083 62.5 57.2833 62.2801 56.6666 61.868C56.0499 61.456 55.5693 60.8703 55.2855 60.1851C55.0016 59.4998 54.9274 58.7458 55.0721 58.0184C55.2167 57.291 55.5739 56.6228 56.0983 56.0983C56.6228 55.5739 57.291 55.2167 58.0184 55.0721C58.7458 54.9274 59.4998 55.0016 60.1851 55.2855C60.8703 55.5693 61.456 56.0499 61.868 56.6666C62.2801 57.2833 62.5 58.0083 62.5 58.75C62.499 59.7443 62.1036 60.6975 61.4006 61.4006C60.6975 62.1036 59.7443 62.499 58.75 62.5Z" fill="#FF9138"/>
<path d="M65 35H35C34.3372 35.0007 33.7017 35.2643 33.233 35.733C32.7643 36.2017 32.5007 36.8372 32.5 37.5V62.5C32.5007 63.1628 32.7643 63.7983 33.233 64.267C33.7017 64.7357 34.3372 64.9993 35 65H47.5V62.5H35V45H65V48.75H67.5V37.5C67.4993 36.8372 67.2357 36.2017 66.767 35.733C66.2983 35.2643 65.6628 35.0007 65 35ZM65 42.5H35V37.5H65V42.5Z" fill="#FF9138"/>
<path d="M55 41.25C55.6904 41.25 56.25 40.6904 56.25 40C56.25 39.3096 55.6904 38.75 55 38.75C54.3096 38.75 53.75 39.3096 53.75 40C53.75 40.6904 54.3096 41.25 55 41.25Z" fill="#FF9138"/>
<path d="M58.75 41.25C59.4404 41.25 60 40.6904 60 40C60 39.3096 59.4404 38.75 58.75 38.75C58.0596 38.75 57.5 39.3096 57.5 40C57.5 40.6904 58.0596 41.25 58.75 41.25Z" fill="#FF9138"/>
<path d="M62.5 41.25C63.1904 41.25 63.75 40.6904 63.75 40C63.75 39.3096 63.1904 38.75 62.5 38.75C61.8096 38.75 61.25 39.3096 61.25 40C61.25 40.6904 61.8096 41.25 62.5 41.25Z" fill="#FF9138"/>
</svg>
