<svg width="100" height="100" viewBox="0 0 100 100" fill="none" xmlns="http://www.w3.org/2000/svg">
<rect x="2" y="2" width="96" height="96" rx="18" stroke="#FF9138" stroke-width="4"/>
<path d="M58.0417 63.1667C57.5576 63.1667 57.1522 63.0027 56.8253 62.6747C56.4973 62.3478 56.3333 61.9424 56.3333 61.4583V56.3333H51.2083C50.7243 56.3333 50.3189 56.1693 49.992 55.8413C49.664 55.5145 49.5 55.109 49.5 54.625C49.5 54.141 49.664 53.735 49.992 53.407C50.3189 53.0801 50.7243 52.9167 51.2083 52.9167H56.3333V47.7917C56.3333 47.3076 56.4973 46.9016 56.8253 46.5736C57.1522 46.2468 57.5576 46.0833 58.0417 46.0833C58.5257 46.0833 58.9311 46.2468 59.258 46.5736C59.586 46.9016 59.75 47.3076 59.75 47.7917V52.9167H64.875C65.359 52.9167 65.7645 53.0801 66.0913 53.407C66.4193 53.735 66.5833 54.141 66.5833 54.625C66.5833 55.109 66.4193 55.5145 66.0913 55.8413C65.7645 56.1693 65.359 56.3333 64.875 56.3333H59.75V61.4583C59.75 61.9424 59.586 62.3478 59.258 62.6747C58.9311 63.0027 58.5257 63.1667 58.0417 63.1667ZM35.8333 56.3333C35.3493 56.3333 34.9439 56.1693 34.617 55.8413C34.289 55.5145 34.125 55.109 34.125 54.625C34.125 54.141 34.289 53.735 34.617 53.407C34.9439 53.0801 35.3493 52.9167 35.8333 52.9167H44.375C44.859 52.9167 45.265 53.0801 45.593 53.407C45.9199 53.735 46.0833 54.141 46.0833 54.625C46.0833 55.109 45.9199 55.5145 45.593 55.8413C45.265 56.1693 44.859 56.3333 44.375 56.3333H35.8333ZM35.8333 49.5C35.3493 49.5 34.9439 49.336 34.617 49.008C34.289 48.6811 34.125 48.2757 34.125 47.7917C34.125 47.3076 34.289 46.9016 34.617 46.5736C34.9439 46.2468 35.3493 46.0833 35.8333 46.0833H51.2083C51.6924 46.0833 52.0984 46.2468 52.4264 46.5736C52.7532 46.9016 52.9167 47.3076 52.9167 47.7917C52.9167 48.2757 52.7532 48.6811 52.4264 49.008C52.0984 49.336 51.6924 49.5 51.2083 49.5H35.8333ZM35.8333 42.6667C35.3493 42.6667 34.9439 42.5032 34.617 42.1764C34.289 41.8484 34.125 41.4424 34.125 40.9583C34.125 40.4743 34.289 40.0683 34.617 39.7403C34.9439 39.4134 35.3493 39.25 35.8333 39.25H51.2083C51.6924 39.25 52.0984 39.4134 52.4264 39.7403C52.7532 40.0683 52.9167 40.4743 52.9167 40.9583C52.9167 41.4424 52.7532 41.8484 52.4264 42.1764C52.0984 42.5032 51.6924 42.6667 51.2083 42.6667H35.8333Z" fill="#FF9138"/>
</svg>
