<svg width="100" height="100" viewBox="0 0 100 100" fill="none" xmlns="http://www.w3.org/2000/svg">
<path d="M20 2H80C89.9411 2 98 10.0589 98 20V80C98 89.9411 89.9411 98 80 98H20C10.0589 98 2 89.9411 2 80V20C2 10.0589 10.0589 2 20 2Z" stroke="#FF9138" stroke-width="4"/>
<path d="M50.0002 41.6667H50.0168M58.3335 35H41.6668C40.7828 35 39.9349 35.3512 39.3098 35.9763C38.6847 36.6014 38.3335 37.4493 38.3335 38.3333V61.6667C38.3335 62.5507 38.6847 63.3986 39.3098 64.0237C39.9349 64.6488 40.7828 65 41.6668 65H58.3335C59.2176 65 60.0654 64.6488 60.6905 64.0237C61.3156 63.3986 61.6668 62.5507 61.6668 61.6667V38.3333C61.6668 37.4493 61.3156 36.6014 60.6905 35.9763C60.0654 35.3512 59.2176 35 58.3335 35Z" stroke="#FF9138" stroke-width="3" stroke-linecap="round" stroke-linejoin="round"/>
<path d="M50 58.3335C52.7614 58.3335 55 56.0949 55 53.3335C55 50.5721 52.7614 48.3335 50 48.3335C47.2386 48.3335 45 50.5721 45 53.3335C45 56.0949 47.2386 58.3335 50 58.3335Z" stroke="#FF9138" stroke-width="3" stroke-linecap="round" stroke-linejoin="round"/>
</svg>
