<svg width="19" height="11" viewBox="0 0 19 11" fill="none" xmlns="http://www.w3.org/2000/svg">
<path d="M17.8357 10.2275C17.5895 10.4736 17.2558 10.6118 16.9077 10.6118C16.5597 10.6118 16.2259 10.4736 15.9798 10.2275L9.48297 3.7306L2.98608 10.2275C2.73848 10.4666 2.40698 10.5989 2.06288 10.5959C1.71868 10.5929 1.38948 10.4549 1.14618 10.2115C0.902775 9.96818 0.764776 9.63899 0.761776 9.29486C0.758776 8.95072 0.891076 8.61918 1.13018 8.37164L8.55497 0.946801C8.80107 0.700801 9.13487 0.562503 9.48297 0.562503C9.83097 0.562503 10.1647 0.700801 10.4109 0.946801L17.8357 8.37164C18.0817 8.61777 18.22 8.95155 18.22 9.29958C18.22 9.64761 18.0817 9.98139 17.8357 10.2275Z" fill="#FF9138"/>
</svg>
