<svg width="21" height="21" viewBox="0 0 21 21" fill="none" xmlns="http://www.w3.org/2000/svg">
<path d="M2.146 6.94678C2.39213 6.70073 2.72591 6.5625 3.07394 6.5625C3.42197 6.5625 3.75575 6.70073 4.00188 6.94678L10.4987 13.4437L16.9956 6.94678C17.2432 6.7077 17.5747 6.57541 17.9188 6.5784C18.263 6.58139 18.5922 6.71942 18.8355 6.96277C19.0789 7.20612 19.2169 7.53531 19.2199 7.87944C19.2229 8.22358 19.0906 8.55512 18.8515 8.80266L11.4267 16.2275C11.1806 16.4735 10.8468 16.6118 10.4987 16.6118C10.1507 16.6118 9.81694 16.4735 9.57081 16.2275L2.146 8.80266C1.89995 8.55653 1.76172 8.22275 1.76172 7.87472C1.76172 7.52669 1.89995 7.19291 2.146 6.94678Z" fill="white"/>
</svg>
