<svg width="72" height="22" viewBox="0 0 72 22" fill="none" xmlns="http://www.w3.org/2000/svg">
<path fill-rule="evenodd" clip-rule="evenodd" d="M0.30249 2.36361C0.30249 1.09166 1.3336 0.0605469 2.60555 0.0605469H68.8185C70.0904 0.0605469 71.1215 1.09166 71.1215 2.36361V19.6365C71.1215 20.9085 70.0904 21.9396 68.8185 21.9396H2.60554C1.3336 21.9396 0.30249 20.9085 0.30249 19.6365V2.36361Z" fill="white"/>
<path fill-rule="evenodd" clip-rule="evenodd" d="M22.6592 3.81286H23.9182C24.9653 3.81286 25.5814 4.45575 25.5814 5.56375C25.5814 6.6742 24.9653 7.32683 23.9182 7.32683H22.6592V3.81286ZM23.2046 4.28235V6.85391H23.867C24.6121 6.85391 25.0261 6.39853 25.0261 5.56813C25.0261 4.74017 24.6121 4.28235 23.867 4.28235H23.2046ZM27.5243 7.35819C26.7596 7.35819 26.2726 6.83706 26.2726 6.00423C26.2726 5.17383 26.7621 4.64783 27.5243 4.64783C28.2865 4.64783 28.7735 5.17139 28.7735 6.00423C28.7735 6.83706 28.2889 7.35819 27.5243 7.35819ZM27.5244 6.92009C27.9725 6.92009 28.2379 6.5816 28.2379 6.00446C28.2379 5.42732 27.9725 5.0864 27.5244 5.0864C27.0763 5.0864 26.8085 5.42976 26.8085 6.00446C26.8085 6.5816 27.0763 6.92009 27.5244 6.92009ZM33.0056 4.68213L32.2775 7.32674H31.732L31.1695 5.33476H31.1573L30.5996 7.32674H30.0566L29.326 4.68213H29.852L30.3439 6.77638H30.3537L30.9138 4.68213H31.4203L31.9828 6.77638H31.9925L32.4845 4.68213H33.0056ZM33.6847 7.32672V4.68211H34.1888V5.12775H34.1986C34.3593 4.81605 34.6247 4.65289 35.0338 4.65289C35.6183 4.65289 35.9519 5.02304 35.9519 5.63183V7.32672H35.4235V5.73168C35.4235 5.32987 35.2384 5.10583 34.8512 5.10583C34.4518 5.10583 34.2132 5.38344 34.2132 5.79986V7.32672H33.6847ZM36.8478 7.32655V3.6543H37.3762V7.32655H36.8478ZM39.4163 7.35819C38.6517 7.35819 38.1646 6.83706 38.1646 6.00423C38.1646 5.17383 38.6541 4.64783 39.4163 4.64783C40.1785 4.64783 40.6656 5.17139 40.6656 6.00423C40.6656 6.83706 40.181 7.35819 39.4163 7.35819ZM39.4164 6.92009C39.8645 6.92009 40.1299 6.5816 40.1299 6.00446C40.1299 5.42732 39.8645 5.0864 39.4164 5.0864C38.9683 5.0864 38.7005 5.42976 38.7005 6.00446C38.7005 6.5816 38.9683 6.92009 39.4164 6.92009ZM42.3528 6.93208C42.7449 6.93208 43.042 6.68126 43.042 6.33303V6.12604L42.3991 6.16987C42.0387 6.19179 41.8511 6.32572 41.8511 6.5595C41.8511 6.78597 42.0484 6.93208 42.3528 6.93208ZM42.2115 7.35332C41.6831 7.35332 41.3178 7.04161 41.3178 6.56919C41.3178 6.1065 41.6758 5.83863 42.3284 5.79724L43.0419 5.75584V5.55128C43.0419 5.24932 42.8398 5.08373 42.4867 5.08373C42.1994 5.08373 41.9899 5.23227 41.9437 5.46118H41.4493C41.4639 4.99362 41.9071 4.64783 42.5013 4.64783C43.1467 4.64783 43.5631 4.98875 43.5631 5.51232V7.32653H43.059V6.88576H43.0468C42.9007 7.17311 42.572 7.35332 42.2115 7.35332ZM45.4354 7.35334C44.773 7.35334 44.3201 6.82004 44.3201 6.00181C44.3201 5.18846 44.773 4.65516 45.4305 4.65516C45.8104 4.65516 46.1124 4.82806 46.2633 5.12028H46.2755V3.6543H46.8015V7.32655H46.2901V6.87848H46.2804C46.1245 7.17801 45.8226 7.35334 45.4354 7.35334ZM45.5693 5.10327C45.1432 5.10327 44.8607 5.4588 44.8607 6.00429C44.8607 6.5522 45.1407 6.9053 45.5693 6.9053C45.9931 6.9053 46.278 6.5449 46.278 6.00429C46.278 5.46611 45.9931 5.10327 45.5693 5.10327ZM50.3345 7.35819C49.5698 7.35819 49.0828 6.83706 49.0828 6.00423C49.0828 5.17383 49.5723 4.64783 50.3345 4.64783C51.0967 4.64783 51.5837 5.17139 51.5837 6.00423C51.5837 6.83706 51.0991 7.35819 50.3345 7.35819ZM50.3346 6.92009C50.7826 6.92009 51.0481 6.5816 51.0481 6.00446C51.0481 5.42732 50.7826 5.0864 50.3346 5.0864C49.8865 5.0864 49.6186 5.42976 49.6186 6.00446C49.6186 6.5816 49.8865 6.92009 50.3346 6.92009ZM52.3529 7.32672V4.68211H52.857V5.12775H52.8668C53.0275 4.81605 53.2929 4.65289 53.702 4.65289C54.2865 4.65289 54.6201 5.02304 54.6201 5.63183V7.32672H54.0917V5.73168C54.0917 5.32987 53.9066 5.10583 53.5194 5.10583C53.12 5.10583 52.8814 5.38344 52.8814 5.79986V7.32672H52.3529ZM57.1469 4.08781H57.6729V4.68199H58.1795V5.09841H57.6729V6.57657C57.6729 6.80547 57.7752 6.91262 57.9968 6.91262C58.0528 6.91262 58.1429 6.90531 58.177 6.90044V7.31686C58.1186 7.33147 57.9944 7.34365 57.8799 7.34365C57.3515 7.34365 57.1469 7.14153 57.1469 6.63014V5.09841H56.7817V4.68199H57.1469V4.08781ZM58.9925 7.32655V3.6543H59.5161V5.12758H59.5283C59.6865 4.81588 59.9593 4.65272 60.3635 4.65272C60.9455 4.65272 61.2938 5.03992 61.2938 5.63654V7.32655H60.7653V5.73881C60.7653 5.34431 60.5681 5.10567 60.1809 5.10567C59.7693 5.10567 59.5209 5.38815 59.5209 5.81187V7.32655H58.9925ZM63.2686 5.07909C62.8887 5.07909 62.6135 5.3567 62.5843 5.76338H63.9261C63.9139 5.35183 63.6533 5.07909 63.2686 5.07909ZM63.9235 6.55214H64.4276C64.3521 7.027 63.887 7.35819 63.2928 7.35819C62.5257 7.35819 62.0485 6.84193 62.0485 6.01397C62.0485 5.186 62.5306 4.64783 63.2709 4.64783C63.9966 4.64783 64.4544 5.15191 64.4544 5.95309V6.13816H62.5818V6.16982C62.5818 6.62763 62.8691 6.9296 63.3026 6.9296C63.6094 6.9296 63.8505 6.78348 63.9235 6.55214Z" fill="#222222"/>
<path fill-rule="evenodd" clip-rule="evenodd" d="M26.6576 17.3335L26.0361 15.4973H23.4467L22.8252 17.3335H21.7283L24.1812 10.5398H25.3205L27.7734 17.3335H26.6576ZM24.7273 11.6699L23.7151 14.6501H25.7678L24.7555 11.6699H24.7273ZM31.1699 12.1687C32.474 12.1687 33.3309 13.1903 33.3309 14.7769C33.3309 16.3588 32.4787 17.3852 31.1935 17.3852C30.459 17.3852 29.8799 17.0603 29.5739 16.4953H29.5551V19.0283H28.5334V12.2205H29.5174V13.0679H29.5409C29.8281 12.5171 30.459 12.1687 31.1699 12.1687ZM30.9111 16.5191C31.7397 16.5191 32.2859 15.8364 32.2859 14.7771C32.2859 13.7225 31.7397 13.0351 30.9111 13.0351C30.1013 13.0351 29.5505 13.7366 29.5458 14.7771C29.5505 15.8223 30.0966 16.5191 30.9111 16.5191ZM36.8972 12.1687C38.2013 12.1687 39.0582 13.1903 39.0582 14.7769C39.0582 16.3588 38.206 17.3852 36.9207 17.3852C36.1863 17.3852 35.6072 17.0603 35.3012 16.4953H35.2824V19.0283H34.2607V12.2205H35.2447V13.0679H35.2682C35.5554 12.5171 36.1863 12.1687 36.8972 12.1687ZM36.6381 16.5191C37.4667 16.5191 38.0129 15.8364 38.0129 14.7771C38.0129 13.7225 37.4667 13.0351 36.6381 13.0351C35.8283 13.0351 35.2775 13.7366 35.2728 14.7771C35.2775 15.8223 35.8236 16.5191 36.6381 16.5191ZM42.1274 15.4408H43.1679C43.2432 16.114 43.8976 16.5566 44.7922 16.5566C45.649 16.5566 46.2658 16.114 46.2658 15.5067C46.2658 14.9794 45.8938 14.664 45.0134 14.4474L44.133 14.2355C42.8854 13.9342 42.3063 13.3504 42.3063 12.4041C42.3063 11.2318 43.328 10.4268 44.778 10.4268C46.214 10.4268 47.198 11.2318 47.2309 12.4041H46.2046C46.1434 11.7262 45.5831 11.3166 44.7639 11.3166C43.9447 11.3166 43.3845 11.7309 43.3845 12.3335C43.3845 12.8137 43.7423 13.0962 44.618 13.3128L45.3666 13.4964C46.7601 13.8259 47.3392 14.3862 47.3392 15.3796C47.3392 16.6508 46.327 17.4464 44.7168 17.4464C43.2103 17.4464 42.1933 16.6696 42.1274 15.4408ZM48.6031 11.0717H49.62V12.2204H50.5993V13.0255H49.62V15.8833C49.62 16.3258 49.8178 16.533 50.2462 16.533C50.3545 16.533 50.5287 16.5189 50.5946 16.5094V17.3145C50.4816 17.3428 50.2415 17.3663 50.0202 17.3663C48.9986 17.3663 48.6031 16.9755 48.6031 15.9869V13.0255H47.8969V12.2204H48.6031V11.0717ZM53.6474 17.3946C52.1691 17.3946 51.2275 16.3871 51.2275 14.777C51.2275 13.1715 52.1738 12.1546 53.6474 12.1546C55.121 12.1546 56.0626 13.1668 56.0626 14.777C56.0626 16.3871 55.1257 17.3946 53.6474 17.3946ZM53.6476 16.5471C54.5139 16.5471 55.0271 15.8927 55.0271 14.7769C55.0271 13.6611 54.5139 13.002 53.6476 13.002C52.7814 13.002 52.2635 13.6658 52.2635 14.7769C52.2635 15.8927 52.7814 16.5471 53.6476 16.5471ZM56.9969 17.3334V12.2205H57.9715V13.082H57.9903C58.1504 12.5124 58.6212 12.1687 59.2238 12.1687C59.3745 12.1687 59.5016 12.1828 59.5816 12.2016V13.1574C59.4969 13.1244 59.318 13.0962 59.1156 13.0962C58.4423 13.0962 58.0186 13.5622 58.0186 14.2826V17.3334H56.9969ZM62.4793 12.9879C61.7448 12.9879 61.2128 13.5246 61.1563 14.3109H63.7505C63.7269 13.5152 63.2232 12.9879 62.4793 12.9879ZM63.7458 15.8363H64.7204C64.5744 16.7544 63.6752 17.3946 62.5264 17.3946C61.0434 17.3946 60.1206 16.3965 60.1206 14.7958C60.1206 13.1951 61.0528 12.1546 62.4841 12.1546C63.8871 12.1546 64.7722 13.1292 64.7722 14.6781V15.0359H61.1517V15.0971C61.1517 15.9822 61.7072 16.566 62.5453 16.566C63.1385 16.566 63.6046 16.2835 63.7458 15.8363Z" fill="#222222"/>
<path fill-rule="evenodd" clip-rule="evenodd" d="M14.3738 3.14258C13.6705 3.17198 12.8184 3.6096 12.3141 4.19796C11.8607 4.72046 11.465 5.55434 11.5717 6.35391C12.3568 6.41514 13.1569 5.95658 13.6456 5.36793C14.1334 4.77822 14.4636 3.95983 14.3738 3.14258ZM14.1749 17.0576C15.1277 17.0399 15.7312 16.1957 16.3146 15.3463C16.9539 14.4159 17.2362 13.5138 17.2783 13.3793C17.2807 13.3718 17.2823 13.3667 17.2831 13.3641C17.2827 13.3639 17.2815 13.3634 17.2796 13.3627C17.188 13.3256 15.4243 12.6113 15.4068 10.5465C15.3896 8.84145 16.7545 7.99326 16.9048 7.89988C16.91 7.89663 16.9138 7.8943 16.916 7.89287C16.0944 6.69599 14.8151 6.53187 14.3593 6.51313C13.6934 6.44606 13.0475 6.69959 12.5197 6.90674C12.1843 7.03838 11.8966 7.15129 11.6819 7.15129C11.4429 7.15129 11.1474 7.03444 10.8157 6.90331C10.3815 6.73167 9.88548 6.53557 9.37337 6.54495C8.18722 6.56264 7.09264 7.23263 6.48178 8.29156C5.24821 10.4238 6.16543 13.5834 7.36718 15.3123C7.95542 16.1579 8.65488 17.1096 9.57475 17.0753C9.98547 17.0589 10.2778 16.9349 10.5801 16.8066C10.9294 16.6585 11.2921 16.5046 11.8664 16.5046C12.4134 16.5046 12.7593 16.6537 13.092 16.7971C13.4103 16.9343 13.7164 17.0662 14.1749 17.0576Z" fill="#222222"/>
</svg>
