<svg width="72" height="22" viewBox="0 0 72 22" fill="none" xmlns="http://www.w3.org/2000/svg">
<path fill-rule="evenodd" clip-rule="evenodd" d="M68.8185 21.9396H2.60555C1.29838 21.9396 0.30249 20.955 0.30249 19.6365V2.36361C0.30249 1.0451 1.29838 0.0605469 2.60555 0.0605469H68.8185C70.1256 0.0605469 71.1215 1.0451 71.1215 2.36361V19.6365C71.1215 20.955 70.1256 21.9396 68.8185 21.9396Z" fill="white"/>
<path fill-rule="evenodd" clip-rule="evenodd" d="M5.95728 11.0689V5.31827C5.95728 4.98966 6.23177 4.71582 6.50626 4.71582C6.78075 4.71582 6.89055 4.77059 7.05525 4.88012L17.6507 10.6855C17.8702 10.7951 17.98 10.9594 17.98 11.1237C17.98 11.288 17.8702 11.4523 17.6507 11.5618L7.05525 17.3672C6.94545 17.422 6.78075 17.5315 6.50626 17.5315C6.23177 17.5315 5.95728 17.2577 5.95728 16.9291V11.0689Z" fill="#222222"/>
<path fill-rule="evenodd" clip-rule="evenodd" d="M39.61 18.9004C39.3355 18.6814 39.1159 18.298 39.0061 18.0789L39.8845 17.6955C39.9394 17.8051 40.0492 17.9694 40.159 18.1337C40.3786 18.3528 40.708 18.5718 41.0374 18.5718C41.3667 18.5718 41.751 18.4075 41.9706 18.1337C42.1353 17.8598 42.2451 17.586 42.2451 17.2026V16.874C41.5863 17.6955 40.2139 17.586 39.4453 16.7097C38.6218 15.8334 38.6218 14.3547 39.4453 13.4784C40.2688 12.6569 41.4765 12.5474 42.1902 13.3141V12.9307H43.1235V17.0383C43.1235 18.0789 42.7392 18.6814 42.2451 19.0647C41.9157 19.3386 41.4216 19.4481 40.9825 19.4481C40.4884 19.3933 39.9943 19.229 39.61 18.9004ZM62.6124 19.1196L63.5457 16.9289L61.8988 13.1499H62.832L63.9849 15.8335L65.1378 13.1499H66.071L63.5457 19.1196H62.6124ZM58.1658 17.0383C57.8913 16.7645 57.7815 16.3811 57.7815 15.9977C57.7815 15.6691 57.8913 15.3405 58.1109 15.1215C58.4952 14.7381 59.0442 14.5738 59.6481 14.5738C60.0324 14.5738 60.3618 14.6285 60.6363 14.7929C60.6363 14.1356 60.0873 13.8618 59.6481 13.8618C59.2638 13.8618 58.8795 14.0809 58.7148 14.4642L57.8913 14.1356C58.056 13.7523 58.4952 13.0403 59.5932 13.0403C60.1422 13.0403 60.6912 13.2046 61.0205 13.588C61.3499 13.9713 61.4597 14.4095 61.4597 15.0119V17.3122H60.5265V16.9288C60.4167 17.0931 60.1971 17.2026 60.0324 17.3122C59.8128 17.4217 59.5383 17.4765 59.2638 17.4765C58.9344 17.4217 58.4403 17.3122 58.1658 17.0383ZM28.9047 15.0667C28.9047 13.9713 29.7282 12.7665 31.2105 12.7665C32.6378 12.7665 33.5162 13.9713 33.5162 15.0667C33.5162 16.1621 32.6927 17.367 31.2105 17.367C29.7282 17.367 28.9047 16.1621 28.9047 15.0667ZM33.8457 15.0667C33.8457 13.9713 34.6692 12.7665 36.1514 12.7665C37.5788 12.7665 38.4572 13.9713 38.4572 15.0667C38.4572 16.1621 37.6337 17.367 36.1514 17.367C34.7241 17.367 33.8457 16.1621 33.8457 15.0667ZM22.7013 16.2716C21.3288 14.9024 21.3837 12.6569 22.7562 11.233C23.4699 10.521 24.3482 10.1924 25.2815 10.1924C26.1599 10.1924 27.0383 10.521 27.697 11.1782L27.0383 11.8902C26.0501 10.9044 24.458 10.9591 23.5248 11.945C22.5366 12.9855 22.5366 14.5738 23.5248 15.6144C24.5129 16.655 26.1599 16.7098 27.1481 15.6692C27.4775 15.3406 27.5872 14.9024 27.6421 14.4643H25.3364V13.4785H28.5754C28.6303 13.6975 28.6303 13.9714 28.6303 14.2452C28.6303 15.0667 28.3009 15.8882 27.7519 16.4359C27.1481 17.0384 26.2697 17.367 25.3913 17.367C24.4031 17.3122 23.415 16.9836 22.7013 16.2716ZM45.9232 16.6552C45.0997 15.7789 45.0997 14.3002 45.9232 13.3691C46.7467 12.4928 48.1192 12.4928 48.8877 13.3691C49.1622 13.643 49.3269 14.0263 49.4916 14.4097L46.4722 15.6694C46.6369 16.0528 47.0212 16.3814 47.5702 16.3814C48.0643 16.3814 48.3936 16.2171 48.723 15.7241L49.5465 16.2718C49.4367 16.3814 49.3269 16.4909 49.272 16.6004C48.3387 17.5315 46.7467 17.5315 45.9232 16.6552ZM51.6328 17.3124V11.2331H53.6092C54.762 11.2331 55.6953 12.0547 55.6953 13.0405C55.6953 14.0263 54.8718 14.8478 53.8288 14.8478H52.621V17.2576H51.6328V17.3124ZM56.2443 17.3124V11.2331H57.1776V17.3124H56.2443ZM43.8372 17.2029V10.4117H44.8254V17.2029H43.8372ZM60.5812 15.5051C60.3617 15.3408 60.0323 15.286 59.7029 15.286C59.0441 15.286 58.6598 15.6146 58.6598 15.998C58.6598 16.3813 59.0441 16.6004 59.4284 16.6004C59.9774 16.6004 60.5812 16.1623 60.5812 15.5051ZM32.4731 15.0668C32.4731 14.4096 32.0339 13.6976 31.2104 13.6976C30.3869 13.6976 29.9478 14.4096 29.9478 15.0668C29.9478 15.724 30.3869 16.436 31.2104 16.436C31.979 16.436 32.4731 15.724 32.4731 15.0668ZM37.414 15.0668C37.414 14.4096 36.9748 13.6976 36.1514 13.6976C35.3279 13.6976 34.8887 14.4096 34.8887 15.0668C34.8887 15.724 35.3279 16.436 36.1514 16.436C36.9748 16.436 37.414 15.724 37.414 15.0668ZM42.2999 15.4504C42.2999 15.3956 42.2999 15.3408 42.3548 15.2861C42.3548 15.2313 42.3548 15.1218 42.3548 15.067C42.3548 15.0122 42.3548 14.9027 42.3548 14.8479V14.7932C42.3548 14.7384 42.2999 14.6289 42.2999 14.5741C42.1352 14.0264 41.6412 13.643 41.1471 13.643C40.4883 13.643 39.9393 14.3002 39.9393 15.0122C39.9393 15.779 40.4883 16.3814 41.202 16.3814C41.6412 16.4362 42.0803 16.0528 42.2999 15.4504ZM46.3076 14.9571L48.3388 14.0808C48.1192 13.6975 47.7898 13.5879 47.5153 13.5879C46.6919 13.6427 46.1978 14.519 46.3076 14.9571ZM54.7072 13.0953C54.7072 12.5476 54.2681 12.1643 53.6642 12.1643H52.5662V14.0811H53.7191C54.2681 14.0811 54.7072 13.643 54.7072 13.0953Z" fill="#222222"/>
<path fill-rule="evenodd" clip-rule="evenodd" d="M63.3259 18.0245H63.271V17.9697H63.3259H63.271V18.0245H63.3259Z" fill="white"/>
<path fill-rule="evenodd" clip-rule="evenodd" d="M63.4357 18.0243C63.4357 17.9695 63.4357 17.9695 63.4357 18.0243C63.3808 17.9695 63.3808 17.9695 63.4357 18.0243C63.3808 18.0243 63.3808 18.0243 63.4357 18.0243ZM63.4358 17.9697C63.4358 18.0245 63.4358 18.0245 63.4358 17.9697C63.4358 18.0245 63.3809 18.0245 63.4358 17.9697C63.4358 17.9697 63.3809 17.9697 63.4358 17.9697Z" fill="white"/>
<path fill-rule="evenodd" clip-rule="evenodd" d="M63.4907 17.9697H63.4358H63.4907V18.0245V17.9697Z" fill="white"/>
<path d="M21.9324 5.86561C21.9324 4.87979 22.6461 4.27734 23.5244 4.27734C24.1283 4.27734 24.5126 4.55118 24.7871 4.93456L24.3479 5.2084C24.1832 4.98933 23.9087 4.82502 23.5244 4.82502C22.9205 4.82502 22.4814 5.26317 22.4814 5.92038C22.4814 6.57759 22.9205 7.01574 23.5244 7.01574C23.8538 7.01574 24.1283 6.85143 24.2381 6.7419V6.24899H23.3597V5.75608H24.842V6.9062C24.5675 7.23481 24.1283 7.45388 23.5793 7.45388C22.6461 7.45388 21.9324 6.79666 21.9324 5.86561Z" fill="#222222"/>
<path d="M25.501 7.39903V4.33203H27.5871V4.82494H25.9951V5.59169H27.5322V6.0846H25.9951V6.96089H27.5871V7.4538L25.501 7.39903Z" fill="#222222"/>
<path d="M29.1244 7.39903V4.82494H28.1912V4.33203H30.6067V4.82494H29.6734V7.39903H29.1244Z" fill="#222222"/>
<path d="M32.4731 7.39903V4.33203H33.0221V7.39903H32.4731Z" fill="#222222"/>
<path d="M34.5046 7.39903V4.82494H33.5713V4.33203H35.9868V4.82494H35.0535V7.39903H34.5046Z" fill="#222222"/>
<path fill-rule="evenodd" clip-rule="evenodd" d="M39.3352 4.27832C38.4019 4.27832 37.7432 4.93553 37.7432 5.86659C37.7432 6.74287 38.4019 7.45486 39.3352 7.45486C40.2685 7.45486 40.9273 6.79764 40.9273 5.86659C40.9273 4.93553 40.2685 4.27832 39.3352 4.27832ZM39.2802 4.77143C39.939 4.77143 40.3233 5.20957 40.3233 5.86679C40.3233 6.46923 39.939 6.96215 39.2802 6.96215C38.6214 6.96215 38.2371 6.524 38.2371 5.86679C38.2371 5.26434 38.6763 4.77143 39.2802 4.77143Z" fill="#222222"/>
<path d="M43.6723 7.39903L42.0802 5.20832V7.39903H41.5312V4.33203H42.0802L43.6723 6.46798V4.33203H44.2213V7.39903H43.6723Z" fill="#222222"/>
</svg>
