<svg width="86" height="38" viewBox="0 0 86 38" fill="none" xmlns="http://www.w3.org/2000/svg">
<path d="M77.8095 0H8.19048C3.667 0 0 3.69852 0 8.26087V29.7391C0 34.3015 3.667 38 8.19048 38H77.8095C82.333 38 86 34.3015 86 29.7391V8.26087C86 3.69852 82.333 0 77.8095 0Z" fill="#FF9138"/>
<path d="M18.3687 12.5291L20.9624 18.2428L23.556 12.5291H26.3459L22.2592 20.4974V25.058H19.6655V20.4974L15.5703 12.5291H18.3687Z" fill="white"/>
<path d="M27.8135 12.529H31.9259C32.8585 12.529 33.6465 12.6724 34.2891 12.9592C34.9376 13.2461 35.4295 13.6706 35.7651 14.2328C36.1063 14.7892 36.277 15.4748 36.277 16.2894C36.277 16.8631 36.1604 17.388 35.9272 17.8641C35.6995 18.3345 35.3697 18.7361 34.9376 19.0688C34.5108 19.3958 33.9989 19.6396 33.4018 19.8003L32.941 19.981H29.0762L29.0592 18.63H31.977C32.5686 18.63 33.0606 18.5267 33.4529 18.3202C33.8455 18.1079 34.1412 17.824 34.3402 17.4683C34.5392 17.1126 34.6389 16.7197 34.6389 16.2894C34.6389 15.8075 34.545 15.3859 34.3574 15.0245C34.1696 14.663 33.8739 14.3848 33.4701 14.1897C33.0718 13.989 32.5571 13.8886 31.9259 13.8886H29.46V25.058H27.8135V12.529ZM35.0741 25.058L32.0537 19.3786L33.7688 19.37L36.8315 24.9547V25.058H35.0741ZM43.7849 23.466V18.673C43.7849 18.3059 43.7109 17.9875 43.5629 17.7179C43.421 17.4425 43.2047 17.2302 42.9148 17.081C42.6246 16.9319 42.2661 16.8573 41.8397 16.8573C41.4416 16.8573 41.0916 16.9262 40.7902 17.0639C40.4945 17.2015 40.2614 17.3822 40.0907 17.606C39.9258 17.8297 39.8434 18.0706 39.8434 18.3288H38.2648C38.2648 17.9961 38.3502 17.6662 38.5209 17.3392C38.6915 17.0122 38.9361 16.7168 39.2545 16.4529C39.5788 16.1833 39.9654 15.971 40.4148 15.8161C40.8699 15.6555 41.3761 15.5752 41.9336 15.5752C42.6047 15.5752 43.1963 15.6899 43.7082 15.9194C44.2258 16.1488 44.6296 16.4959 44.9196 16.9606C45.2155 17.4195 45.3632 17.9961 45.3632 18.6902V23.0272C45.3632 23.3369 45.3889 23.6668 45.4402 24.0168C45.497 24.3667 45.5794 24.6679 45.6875 24.9203V25.058H44.0407C43.9613 24.8744 43.8988 24.6306 43.8532 24.3265C43.8076 24.0168 43.7849 23.7299 43.7849 23.466ZM44.0579 19.413L44.0751 20.5317H42.4796C42.0302 20.5317 41.6292 20.569 41.2767 20.6436C40.924 20.7124 40.628 20.8185 40.3894 20.9619C40.1502 21.1054 39.9684 21.2861 39.8434 21.5041C39.7181 21.7163 39.6555 21.9659 39.6555 22.2527C39.6555 22.5453 39.7211 22.8121 39.8518 23.053C39.9826 23.2939 40.1789 23.4861 40.4405 23.6295C40.7077 23.7672 41.0348 23.836 41.4217 23.836C41.9052 23.836 42.3316 23.7328 42.7013 23.5263C43.071 23.3197 43.3639 23.0673 43.5801 22.769C43.8021 22.4707 43.9214 22.181 43.9386 21.8999L44.6124 22.6658C44.5726 22.9067 44.4647 23.1734 44.2883 23.466C44.112 23.7586 43.8758 24.0397 43.5801 24.3093C43.2899 24.5732 42.9432 24.7941 42.5391 24.9719C42.1411 25.144 41.6917 25.2301 41.1913 25.2301C40.5655 25.2301 40.0167 25.1067 39.5447 24.86C39.0781 24.6134 38.7142 24.2835 38.4526 23.8705C38.1965 23.4517 38.0688 22.9842 38.0688 22.4679C38.0688 21.9687 38.1654 21.5299 38.3587 21.1513C38.552 20.7669 38.8308 20.4485 39.1947 20.1961C39.5589 19.9379 39.9968 19.7429 40.5087 19.611C41.0206 19.479 41.5923 19.413 42.2235 19.413H44.0579ZM53.6645 23.2509V11.8406H55.2516V25.058H53.801L53.6645 23.2509ZM47.4534 20.5059V20.3252C47.4534 19.6138 47.5389 18.9684 47.7095 18.389C47.8859 17.8039 48.1332 17.3019 48.4518 16.8831C48.7759 16.4644 49.1598 16.1431 49.6037 15.9194C50.0528 15.6899 50.5535 15.5752 51.1053 15.5752C51.6852 15.5752 52.1916 15.6784 52.6238 15.885C53.0617 16.0858 53.4314 16.3812 53.7328 16.7713C54.0402 17.1556 54.2818 17.6203 54.4582 18.1653C54.6346 18.7103 54.7566 19.327 54.8248 20.0154V20.8071C54.7623 21.4897 54.64 22.1035 54.4582 22.6485C54.2818 23.1935 54.0402 23.6582 53.7328 24.0426C53.4314 24.4269 53.0617 24.7223 52.6238 24.9289C52.1859 25.1297 51.674 25.2301 51.0881 25.2301C50.5478 25.2301 50.0528 25.1125 49.6037 24.8773C49.1598 24.6421 48.7759 24.3122 48.4518 23.8877C48.1332 23.4631 47.8859 22.9641 47.7095 22.3904C47.5389 21.811 47.4534 21.1828 47.4534 20.5059ZM49.0405 20.3252V20.5059C49.0405 20.9705 49.0861 21.4065 49.177 21.8139C49.2736 22.2212 49.4216 22.5797 49.6206 22.8895C49.8196 23.1993 50.0727 23.4431 50.3799 23.6209C50.687 23.793 51.054 23.8791 51.4804 23.8791C52.0038 23.8791 52.4332 23.7672 52.7688 23.5435C53.11 23.3197 53.3831 23.0243 53.5878 22.6571C53.7926 22.29 53.952 21.8913 54.0656 21.461V19.3872C53.9973 19.0717 53.898 18.7676 53.7672 18.4751C53.6419 18.1768 53.477 17.9129 53.2722 17.6834C53.0732 17.4482 52.8258 17.2618 52.5299 17.1241C52.2399 16.9864 51.8957 16.9176 51.4976 16.9176C51.0654 16.9176 50.6928 17.0093 50.3799 17.1929C50.0727 17.3708 49.8196 17.6175 49.6206 17.933C49.4216 18.2427 49.2736 18.6042 49.177 19.0172C49.0861 19.4245 49.0405 19.8605 49.0405 20.3252ZM59.4235 15.7473V25.058H57.8368V15.7473H59.4235ZM57.7172 13.2776C57.7172 13.0195 57.7942 12.8015 57.9476 12.6237C58.1068 12.4458 58.3402 12.3569 58.6471 12.3569C58.9487 12.3569 59.1789 12.4458 59.3383 12.6237C59.5032 12.8015 59.5857 13.0195 59.5857 13.2776C59.5857 13.5243 59.5032 13.7366 59.3383 13.9144C59.1789 14.0865 58.9487 14.1726 58.6471 14.1726C58.3402 14.1726 58.1068 14.0865 57.9476 13.9144C57.7942 13.7366 57.7172 13.5243 57.7172 13.2776ZM61.5394 20.5059V20.308C61.5394 19.6368 61.636 19.0143 61.8296 18.4407C62.0229 17.8613 62.3017 17.3593 62.6656 16.9348C63.0298 16.5045 63.4704 16.1718 63.9881 15.9366C64.5057 15.6956 65.0859 15.5752 65.7286 15.5752C66.377 15.5752 66.9599 15.6956 67.4775 15.9366C68.0009 16.1718 68.4445 16.5045 68.8084 16.9348C69.1781 17.3593 69.4599 17.8613 69.6532 18.4407C69.8465 19.0143 69.9434 19.6368 69.9434 20.308V20.5059C69.9434 21.1771 69.8465 21.7995 69.6532 22.3732C69.4599 22.9468 69.1781 23.4488 68.8084 23.8791C68.4445 24.3036 68.0036 24.6363 67.4862 24.8773C66.9741 25.1125 66.3942 25.2301 65.7455 25.2301C65.0973 25.2301 64.5142 25.1125 63.9965 24.8773C63.4789 24.6363 63.0353 24.3036 62.6656 23.8791C62.3017 23.4488 62.0229 22.9468 61.8296 22.3732C61.636 21.7995 61.5394 21.1771 61.5394 20.5059ZM63.118 20.308V20.5059C63.118 20.9705 63.1718 21.4094 63.2799 21.8225C63.388 22.2298 63.5502 22.5912 63.7661 22.9067C63.9881 23.2222 64.2638 23.4718 64.5939 23.6553C64.9237 23.8332 65.3076 23.9221 65.7455 23.9221C66.1779 23.9221 66.5561 23.8332 66.8804 23.6553C67.2102 23.4718 67.4832 23.2222 67.6995 22.9067C67.9154 22.5912 68.0776 22.2298 68.1857 21.8225C68.2995 21.4094 68.3563 20.9705 68.3563 20.5059V20.308C68.3563 19.849 68.2995 19.4159 68.1857 19.0086C68.0776 18.5955 67.9127 18.2313 67.691 17.9158C67.4748 17.5945 67.2017 17.3421 66.8719 17.1585C66.5476 16.9749 66.1665 16.8831 65.7286 16.8831C65.2964 16.8831 64.9152 16.9749 64.5852 17.1585C64.2611 17.3421 63.9881 17.5945 63.7661 17.9158C63.5502 18.2313 63.388 18.5955 63.2799 19.0086C63.1718 19.4159 63.118 19.849 63.118 20.308Z" fill="#3F0B71"/>
</svg>
