<svg width="108" height="27" viewBox="0 0 108 27" fill="none" xmlns="http://www.w3.org/2000/svg">
<g clip-path="url(#clip0_1415_24292)">
<path d="M5.53012 1.38867L10.7349 12.8887L15.8313 1.38867H21.4157L13.2831 17.4442V26.6664H8.13253V17.4442L0 1.38867H5.53012Z" fill="#FF9138"/>
<path d="M94.4457 17.1111V17.5C94.4457 18.4444 94.5541 19.3333 94.771 20.1667C94.9879 21 95.3132 21.7222 95.7469 22.3333C96.1806 22.9444 96.7228 23.5 97.3734 23.8333C98.024 24.1667 98.7831 24.3889 99.6505 24.3889C100.518 24.3889 101.277 24.2222 101.928 23.8333C102.578 23.4444 103.12 22.9444 103.554 22.3333C103.988 21.7222 104.313 20.9444 104.53 20.1667C104.747 19.3333 104.855 18.4444 104.855 17.5V17.1111C104.855 16.1667 104.747 15.3333 104.53 14.5C104.313 13.6667 103.988 12.9444 103.554 12.2778C103.12 11.6111 102.578 11.1111 101.928 10.7222C101.277 10.3333 100.518 10.1667 99.6505 10.1667C98.7831 10.1667 98.024 10.3333 97.3734 10.7222C96.7228 11.1111 96.1806 11.6111 95.7469 12.2778C95.3132 12.8889 94.9879 13.6667 94.771 14.5C94.5541 15.2778 94.4457 16.1667 94.4457 17.1111ZM91.3011 17.5V17.1111C91.3011 15.7778 91.518 14.5 91.8975 13.3333C92.277 12.1667 92.8192 11.1667 93.5782 10.2778C94.2831 9.38889 95.1505 8.72222 96.1806 8.27778C97.2108 7.77778 98.3493 7.55556 99.6505 7.55556C100.952 7.55556 102.09 7.77778 103.12 8.27778C104.151 8.77778 105.018 9.44444 105.777 10.2778C106.536 11.1111 107.078 12.1667 107.458 13.3333C107.837 14.5 108.054 15.7222 108.054 17.1111V17.5C108.054 18.8333 107.837 20.1111 107.458 21.2778C107.078 22.4444 106.536 23.4444 105.777 24.3333C105.072 25.1667 104.205 25.8889 103.175 26.3333C102.145 26.8333 101.006 27.0556 99.7047 27.0556C98.4035 27.0556 97.265 26.8333 96.2349 26.3333C95.2047 25.8333 94.3373 25.1667 93.5782 24.3333C92.8734 23.4444 92.277 22.4444 91.8975 21.2778C91.518 20.1111 91.3011 18.8333 91.3011 17.5ZM83.7108 2.88889C83.7108 2.38889 83.8734 1.94444 84.1445 1.55556C84.4698 1.22222 84.9035 1 85.5541 1C86.1505 1 86.5843 1.16667 86.9096 1.55556C87.2349 1.88889 87.3975 2.33333 87.3975 2.88889C87.3975 3.38889 87.2349 3.83333 86.9096 4.16667C86.5843 4.5 86.1505 4.66667 85.5541 4.66667C84.9578 4.66667 84.4698 4.5 84.1445 4.16667C83.8734 3.83333 83.7108 3.38889 83.7108 2.88889ZM87.0722 7.88889V26.6667H83.9276V7.88889H87.0722ZM66.4698 17.1111V17.5C66.4698 18.4444 66.5782 19.3333 66.7409 20.1667C66.9577 21 67.2288 21.7222 67.6083 22.3333C67.9879 22.9444 68.53 23.4444 69.1264 23.8333C69.7228 24.1667 70.4818 24.3333 71.2951 24.3333C72.3252 24.3333 73.1927 24.1111 73.8433 23.6667C74.4939 23.2222 75.0361 22.6111 75.4698 21.8889C75.9035 21.1667 76.1746 20.3333 76.4457 19.5V15.3333C76.3373 14.7222 76.1204 14.1111 75.8493 13.5C75.5782 12.8889 75.2529 12.3889 74.8734 11.8889C74.4939 11.3889 74.0059 11.0556 73.4095 10.7778C72.8132 10.5 72.1626 10.3333 71.3493 10.3333C70.4818 10.3333 69.777 10.5 69.1264 10.8889C68.53 11.2222 67.9879 11.7222 67.6083 12.3889C67.2288 13 66.9035 13.7222 66.7409 14.5556C66.5782 15.2778 66.4698 16.1667 66.4698 17.1111ZM63.3252 17.5V17.1111C63.3252 15.6667 63.4879 14.3889 63.8132 13.2222C64.1385 12.0556 64.6806 11.0556 65.277 10.1667C65.9276 9.33333 66.6867 8.66667 67.5541 8.22222C68.4216 7.77778 69.4517 7.55556 70.5361 7.55556C71.6746 7.55556 72.7047 7.77778 73.5722 8.16667C74.4397 8.55556 75.1987 9.16667 75.7951 9.94444C76.3915 10.7222 76.8794 11.6667 77.259 12.7778C77.6385 13.8889 77.8553 15.1111 77.9638 16.5V18.1111C77.8553 19.5 77.5843 20.7222 77.259 21.8333C76.9337 22.9444 76.4457 23.8889 75.7951 24.6667C75.1987 25.4444 74.4397 26.0556 73.5722 26.4444C72.7047 26.8333 71.6746 27.0556 70.5361 27.0556C69.4517 27.0556 68.4758 26.8333 67.6083 26.3333C66.7409 25.8333 65.9818 25.1667 65.3312 24.3333C64.6806 23.5 64.1927 22.4444 63.8674 21.3333C63.4879 20.1111 63.3252 18.8333 63.3252 17.5ZM75.6324 23V0H78.777V26.6667H75.9035L75.6324 23ZM56.5481 15.2778L56.6023 17.5556H53.4577C52.5903 17.5556 51.777 17.6111 51.0722 17.7778C50.3674 17.8889 49.771 18.1111 49.3373 18.4444C48.9035 18.7778 48.524 19.1111 48.2529 19.5556C47.9818 20 47.8734 20.5 47.8734 21.0556C47.8734 21.6667 47.9818 22.1667 48.2529 22.6667C48.524 23.1667 48.9035 23.5556 49.4457 23.8333C49.9879 24.1111 50.6385 24.2778 51.3975 24.2778C52.3734 24.2778 53.1867 24.0556 53.9457 23.6667C54.7047 23.2778 55.2469 22.7222 55.6806 22.1111C56.1144 21.5 56.3312 20.9444 56.3855 20.3333L57.7409 21.8889C57.6867 22.3889 57.4698 22.8889 57.0903 23.5C56.7108 24.1111 56.277 24.6667 55.6806 25.2222C55.0842 25.7778 54.4336 26.2222 53.6204 26.5556C52.8071 26.8889 51.9397 27.0556 50.9638 27.0556C49.7168 27.0556 48.6324 26.8333 47.7108 26.3333C46.7891 25.8333 46.0842 25.1667 45.5421 24.3333C45.0541 23.5 44.783 22.5556 44.783 21.5C44.783 20.5 44.9999 19.6111 45.3794 18.8333C45.7589 18.0556 46.3011 17.3889 47.0602 16.8889C47.765 16.3889 48.6324 16 49.6626 15.7222C50.6927 15.4444 51.8312 15.3333 53.0782 15.3333H56.5481V15.2778ZM56.0059 23.4444V13.7778C56.0059 13.0556 55.8433 12.3889 55.5722 11.8333C55.3011 11.2778 54.8674 10.8333 54.271 10.5556C53.6746 10.2778 52.9698 10.1111 52.1565 10.1111C51.3433 10.1111 50.6927 10.2222 50.0963 10.5556C49.4999 10.8333 49.0662 11.2222 48.6867 11.6667C48.3614 12.1111 48.1987 12.6111 48.1987 13.1111H45.0541C45.0541 12.4444 45.2168 11.7778 45.5421 11.1111C45.8674 10.4444 46.3553 9.83333 47.0059 9.33333C47.6565 8.77778 48.4156 8.33333 49.283 8.05556C50.2047 7.72222 51.1806 7.55556 52.3192 7.55556C53.6746 7.55556 54.8132 7.77778 55.8433 8.22222C56.8734 8.66667 57.6867 9.38889 58.2288 10.3333C58.8252 11.2778 59.0963 12.4444 59.0963 13.8333V22.6111C59.0963 23.2222 59.1505 23.8889 59.2589 24.6111C59.3674 25.3333 59.53 25.9444 59.7469 26.4444V26.6667H56.4939C56.3312 26.2778 56.2228 25.7778 56.1144 25.1667C56.0602 24.5556 56.0059 24 56.0059 23.4444ZM38.7108 26.6667L32.7469 15.2222H36.1626L42.2349 26.5V26.6667H38.7108ZM24.2891 1.38889H32.4758C34.3192 1.38889 35.8915 1.66667 37.1927 2.27778C38.4939 2.83333 39.4698 3.72222 40.1204 4.83333C40.771 5.94444 41.1505 7.33333 41.1505 9C41.1505 10.1667 40.9336 11.2222 40.4457 12.1667C40.012 13.1111 39.3614 13.9444 38.4939 14.6111C37.6264 15.2778 36.6505 15.7778 35.4577 16.1111L34.5361 16.5H26.8373L26.783 13.7778H32.5842C33.777 13.7778 34.7529 13.5556 35.512 13.1667C36.271 12.7222 36.8674 12.1667 37.2469 11.4444C37.6264 10.7222 37.8433 9.94444 37.8433 9.05556C37.8433 8.05556 37.6806 7.22222 37.3011 6.5C36.9216 5.77778 36.3252 5.22222 35.5662 4.83333C34.7529 4.44444 33.777 4.22222 32.4758 4.22222H27.5963V26.6667H24.3433V1.38889H24.2891Z" fill="white"/>
</g>
<defs>
<clipPath id="clip0_1415_24292">
<rect width="108" height="27" fill="white"/>
</clipPath>
</defs>
</svg>
