<svg width="86" height="38" viewBox="0 0 86 38" fill="none" xmlns="http://www.w3.org/2000/svg">
<path d="M34.3454 17.458C34.5365 17.1 34.6457 16.7145 34.6457 16.2739C34.6457 15.7783 34.5638 15.3652 34.3727 15.0072C34.1816 14.6493 33.8813 14.3739 33.4991 14.1812C33.0895 13.9884 32.5981 13.8783 31.9429 13.8783H29.4857V18.6145H31.9975C32.5981 18.6145 33.0895 18.5043 33.4717 18.3116C33.854 18.1188 34.1543 17.8159 34.3454 17.458Z" fill="#3F0B71"/>
<path d="M42.4813 20.542C42.0444 20.542 41.6349 20.5696 41.28 20.6522C40.9251 20.7072 40.6248 20.8174 40.4064 20.9826C40.1606 21.1203 39.9968 21.313 39.8603 21.5333C39.7238 21.7536 39.6692 22.0014 39.6692 22.2768C39.6692 22.5797 39.7238 22.8275 39.8603 23.0754C39.9968 23.3232 40.1879 23.5159 40.461 23.6536C40.734 23.7913 41.0616 23.8739 41.4438 23.8739C41.9352 23.8739 42.3448 23.7638 42.727 23.571C43.1092 23.3783 43.3822 23.1029 43.6006 22.8C43.6825 22.6899 43.7371 22.5797 43.819 22.4696V20.542H42.4813Z" fill="#3F0B71"/>
<path d="M53.6749 18.2841C53.5657 18.0638 53.4292 17.871 53.2927 17.6783C53.1016 17.4304 52.8559 17.2652 52.5556 17.1275C52.2552 16.9899 51.9276 16.9072 51.5181 16.9072C51.0813 16.9072 50.7264 16.9899 50.3987 17.1826C50.0984 17.3478 49.8254 17.5957 49.6343 17.9261C49.4432 18.229 49.2794 18.587 49.1975 19C49.1156 19.413 49.061 19.8536 49.061 20.3217V20.5145C49.061 20.9826 49.1156 21.4232 49.1975 21.8362C49.3067 22.2493 49.4432 22.6072 49.6343 22.9101C49.8254 23.213 50.0984 23.4609 50.3987 23.6536C50.6991 23.8188 51.0813 23.9014 51.4908 23.9014C52.0095 23.9014 52.4464 23.7913 52.774 23.571C53.1016 23.3507 53.3746 23.0478 53.593 22.6899C53.6203 22.6348 53.6476 22.5797 53.6749 22.5522V18.2841Z" fill="#3F0B71"/>
<path d="M67.6806 17.9261C67.4622 17.5957 67.1892 17.3478 66.8616 17.1551C66.534 16.9623 66.1517 16.8797 65.7149 16.8797C65.2781 16.8797 64.8959 16.9623 64.5683 17.1551C64.2406 17.3478 63.9676 17.5957 63.7492 17.9261C63.5308 18.229 63.367 18.6145 63.2578 19.0275C63.1486 19.4406 63.094 19.8812 63.094 20.3217V20.5145C63.094 20.9826 63.1486 21.4232 63.2578 21.8362C63.367 22.2493 63.5308 22.6072 63.7492 22.9101C63.9676 23.213 64.2406 23.4884 64.5683 23.6536C64.8959 23.8188 65.2781 23.929 65.7149 23.929C66.1517 23.929 66.534 23.8464 66.8616 23.6536C67.1892 23.4609 67.4622 23.213 67.6806 22.9101C67.899 22.6072 68.0629 22.2217 68.1721 21.8362C68.2813 21.4232 68.3359 20.9826 68.3359 20.5145V20.3217C68.3359 19.8536 68.2813 19.4406 68.1721 19.0275C68.0902 18.587 67.9264 18.229 67.6806 17.9261Z" fill="#3F0B71"/>
<path d="M77.8095 0H8.19048C3.65841 0 0 3.68985 0 8.26087V29.7391C0 34.3101 3.65841 38 8.19048 38H77.8095C82.3416 38 86 34.3101 86 29.7391V8.26087C86 3.68985 82.3416 0 77.8095 0ZM22.2508 20.487V25.058H19.6571V20.487L15.5619 12.529H18.3467L20.9403 18.2565L23.534 12.529H26.3187L22.2508 20.487ZM35.0825 25.058L32.3797 19.9913H29.4584V25.058H27.8203V12.529H31.9429C32.8711 12.529 33.6629 12.6667 34.3181 12.9696C34.9733 13.2449 35.4648 13.6855 35.7924 14.2362C36.12 14.787 36.3111 15.4754 36.3111 16.3014C36.3111 16.8797 36.2019 17.4029 35.9562 17.871C35.7378 18.3391 35.4102 18.7522 34.9733 19.0826C34.673 19.3029 34.3181 19.4957 33.9359 19.6333L36.8571 24.9478V25.058H35.0825ZM45.6756 25.058H44.0375C43.9556 24.8652 43.901 24.6174 43.8464 24.3145C43.8464 24.2319 43.819 24.1493 43.819 24.0667C43.7371 24.1493 43.6552 24.2319 43.5733 24.3145C43.273 24.5899 42.9454 24.8101 42.5359 24.9754C42.1264 25.1406 41.6895 25.2232 41.1981 25.2232C40.5702 25.2232 40.0241 25.113 39.56 24.8652C39.0959 24.6174 38.741 24.287 38.4679 23.8739C38.2222 23.4609 38.0857 22.9928 38.0857 22.4696C38.0857 21.9739 38.1949 21.5333 38.386 21.1478C38.5771 20.7623 38.8502 20.4319 39.2324 20.1841C39.5873 19.9362 40.0241 19.7435 40.5429 19.6058C41.0616 19.4681 41.6349 19.413 42.2629 19.413H43.819V18.6696C43.819 18.3116 43.7371 17.9812 43.6006 17.7058C43.4641 17.4304 43.2457 17.2101 42.9454 17.0725C42.6451 16.9348 42.2902 16.8522 41.8806 16.8522C41.4711 16.8522 41.1435 16.9072 40.8432 17.0725C40.5429 17.2101 40.3244 17.4029 40.1333 17.6232C39.9695 17.8435 39.8876 18.0913 39.8876 18.3391H38.3041C38.3041 18.0087 38.386 17.6783 38.5498 17.3478C38.7137 17.0174 38.9594 16.7145 39.287 16.4667C39.6146 16.1913 39.9968 15.971 40.4337 15.8333C40.8978 15.6681 41.3892 15.5855 41.9625 15.5855C42.6451 15.5855 43.2184 15.6957 43.7371 15.9159C44.2559 16.1362 44.6654 16.4942 44.9384 16.9623C45.2387 17.4304 45.3752 18.0087 45.3752 18.6971V23.0478C45.3752 23.3507 45.4025 23.6812 45.4571 24.0391C45.5117 24.3971 45.5937 24.7 45.7029 24.9478V25.058H45.6756ZM53.8114 25.058L53.7295 24.0391C53.4292 24.4246 53.0743 24.7 52.6375 24.9203C52.2006 25.113 51.6819 25.2232 51.1086 25.2232C50.5625 25.2232 50.0711 25.113 49.6343 24.8652C49.1975 24.6174 48.8152 24.287 48.4876 23.8739C48.16 23.4609 47.9143 22.9377 47.7505 22.387C47.5867 21.8087 47.5048 21.1754 47.5048 20.5145V20.3217C47.5048 19.6058 47.5867 18.9725 47.7505 18.3942C47.9143 17.8159 48.1873 17.3203 48.4876 16.8797C48.8152 16.4667 49.1975 16.1362 49.6343 15.9159C50.0711 15.6957 50.5898 15.5855 51.1359 15.5855C51.7092 15.5855 52.2279 15.6957 52.6648 15.8884C53.0743 16.0812 53.4292 16.3565 53.7022 16.687V11.8406H55.2857V25.058H53.8114ZM59.4356 25.058H57.8521V15.7507H59.4356V25.058ZM59.3264 13.9058C59.1625 14.071 58.9441 14.1536 58.6438 14.1536C58.3435 14.1536 58.0978 14.071 57.934 13.9058C57.7702 13.7406 57.7156 13.5203 57.7156 13.2725C57.7156 13.0246 57.7975 12.8043 57.934 12.6116C58.0978 12.4464 58.3162 12.3362 58.6438 12.3362C58.9441 12.3362 59.1625 12.4188 59.3264 12.6116C59.4902 12.7768 59.5721 12.9971 59.5721 13.2725C59.5721 13.5203 59.4902 13.7406 59.3264 13.9058ZM69.9467 20.5145C69.9467 21.1754 69.8375 21.8087 69.6464 22.387C69.4552 22.9652 69.1822 23.4609 68.8 23.9014C68.4451 24.3145 68.0083 24.6725 67.4895 24.8928C66.9708 25.1406 66.3975 25.2507 65.7422 25.2507C65.087 25.2507 64.5136 25.1406 63.9949 24.8928C63.4762 24.6449 63.0394 24.3145 62.6571 23.9014C62.3022 23.4609 62.0019 22.9652 61.8108 22.387C61.6197 21.8087 61.5105 21.2029 61.5105 20.5145V20.3217C61.5105 19.6609 61.6197 19.0275 61.8108 18.4493C62.0019 17.871 62.2749 17.3754 62.6571 16.9348C63.0121 16.4942 63.4489 16.1638 63.9676 15.9435C64.4864 15.6957 65.0597 15.5855 65.7149 15.5855C66.3702 15.5855 66.9435 15.6957 67.4622 15.9435C67.981 16.1913 68.4178 16.5217 68.8 16.9348C69.1822 17.3478 69.4552 17.871 69.6464 18.4493C69.8375 19.0275 69.9467 19.6333 69.9467 20.3217V20.5145Z" fill="#3F0B71"/>
<path d="M20.9676 18.229L18.374 12.529H15.5619L19.6571 20.487V25.058H22.2508V20.487L26.346 12.529H23.5613L20.9676 18.229Z" fill="#FF9138"/>
<path d="M34.946 19.0551C35.3829 18.7246 35.7105 18.3116 35.9289 17.8435C36.1746 17.3754 36.2838 16.8522 36.2838 16.2739C36.2838 15.4478 36.12 14.787 35.7651 14.2087C35.4375 13.658 34.946 13.2174 34.2908 12.942C33.6356 12.6667 32.8711 12.5014 31.9156 12.5014H27.793V25.058H29.4311V19.9913H32.3524L35.0552 25.058H36.8025V24.9478L33.8813 19.6333C34.2908 19.4957 34.6457 19.3029 34.946 19.0551ZM29.4584 18.642V13.8783H31.9156C32.5435 13.8783 33.0622 13.9884 33.4717 14.1812C33.8813 14.3739 34.1816 14.6493 34.3454 15.0072C34.5365 15.3652 34.6184 15.7783 34.6184 16.2739C34.6184 16.7145 34.5092 17.1 34.3181 17.458C34.127 17.8159 33.8267 18.0913 33.4444 18.3116C33.0622 18.5319 32.5708 18.6145 31.9702 18.6145H29.4584V18.642Z" fill="white"/>
<path d="M53.6749 16.687C53.3746 16.329 53.047 16.0536 52.6375 15.8884C52.2006 15.6681 51.7092 15.5855 51.1086 15.5855C50.5625 15.5855 50.0438 15.6957 49.607 15.9159C49.1702 16.1362 48.7879 16.4667 48.4603 16.8797C48.1327 17.2928 47.887 17.7884 47.7232 18.3942C47.5594 18.9725 47.4775 19.6058 47.4775 20.3217V20.5145C47.4775 21.2029 47.5594 21.8087 47.7232 22.387C47.887 22.9652 48.16 23.4609 48.4603 23.8739C48.7879 24.287 49.1702 24.6174 49.607 24.8652C50.0438 25.113 50.5625 25.2232 51.0813 25.2232C51.6546 25.2232 52.1733 25.113 52.6102 24.9203C53.047 24.7275 53.4019 24.4246 53.7022 24.0391L53.7841 25.058H55.2311V11.8406H53.6476V16.687H53.6749ZM52.774 23.5435C52.4464 23.7638 52.0095 23.8739 51.4908 23.8739C51.054 23.8739 50.6991 23.7913 50.3987 23.6261C50.0984 23.4609 49.8254 23.213 49.6343 22.8826C49.4432 22.5522 49.2794 22.2217 49.1975 21.8087C49.1156 21.3957 49.061 20.9551 49.061 20.487V20.2942C49.061 19.8261 49.1156 19.3855 49.1975 18.9725C49.3067 18.5594 49.4432 18.2014 49.6343 17.8986C49.8254 17.5957 50.0984 17.3478 50.3987 17.1551C50.6991 16.9623 51.0813 16.8797 51.5181 16.8797C51.9276 16.8797 52.2552 16.9348 52.5556 17.1C52.8559 17.2377 53.1016 17.4304 53.2927 17.6507C53.4565 17.8159 53.5657 18.0362 53.6749 18.2565V22.4971C53.6476 22.5522 53.6203 22.6072 53.593 22.6348C53.3746 23.0203 53.1016 23.3232 52.774 23.5435Z" fill="white"/>
<path d="M59.4083 15.7507H57.8248V25.058H59.4083V15.7507Z" fill="white"/>
<path d="M58.6438 12.3638C58.3435 12.3638 58.0978 12.4464 57.934 12.6391C57.7702 12.8043 57.7156 13.0246 57.7156 13.3C57.7156 13.5478 57.7975 13.7681 57.934 13.9333C58.0978 14.0985 58.3162 14.1812 58.6438 14.1812C58.9441 14.1812 59.1625 14.0985 59.3264 13.9333C59.4902 13.7681 59.5721 13.5478 59.5721 13.3C59.5721 13.0522 59.4902 12.8319 59.3264 12.6391C59.1898 12.4464 58.9441 12.3638 58.6438 12.3638Z" fill="white"/>
<path d="M68.8 16.9348C68.4451 16.4942 67.981 16.1638 67.4622 15.9435C66.9435 15.6957 66.3702 15.5855 65.7149 15.5855C65.0597 15.5855 64.4864 15.6957 63.9676 15.9435C63.4489 16.1913 63.0121 16.5217 62.6571 16.9348C62.3022 17.3478 62.0019 17.871 61.8108 18.4493C61.6197 19.0275 61.5105 19.6333 61.5105 20.3217V20.5145C61.5105 21.1754 61.6197 21.8087 61.8108 22.387C62.0019 22.9652 62.2749 23.4609 62.6571 23.9014C63.0394 24.3145 63.4762 24.6725 63.9949 24.8928C64.5136 25.1406 65.087 25.2507 65.7422 25.2507C66.3975 25.2507 66.9708 25.1406 67.4895 24.8928C68.0083 24.6449 68.4451 24.3145 68.8 23.9014C69.1822 23.4609 69.4552 22.9652 69.6464 22.387C69.8375 21.8087 69.9467 21.2029 69.9467 20.5145V20.3217C69.9467 19.6609 69.8375 19.0275 69.6464 18.4493C69.4552 17.871 69.1822 17.3478 68.8 16.9348ZM68.3632 20.5145C68.3632 20.9826 68.3086 21.4232 68.1994 21.8362C68.0902 22.2493 67.9264 22.6072 67.7079 22.9101C67.4895 23.213 67.2165 23.4884 66.8889 23.6536C66.5613 23.8188 66.1791 23.929 65.7422 23.929C65.3054 23.929 64.9232 23.8464 64.5956 23.6536C64.2679 23.4609 63.9949 23.213 63.7765 22.9101C63.5581 22.6072 63.3943 22.2217 63.2851 21.8362C63.1759 21.4232 63.1213 20.9826 63.1213 20.5145V20.3217C63.1213 19.8536 63.1759 19.4406 63.2851 19.0275C63.3943 18.6145 63.5581 18.2565 63.7765 17.9261C63.9949 17.5957 64.2679 17.3478 64.5956 17.1551C64.9232 16.9623 65.3054 16.8797 65.7422 16.8797C66.1791 16.8797 66.5613 16.9623 66.8889 17.1551C67.2165 17.3478 67.4895 17.5957 67.7079 17.9261C67.9264 18.229 68.0902 18.6145 68.1994 19.0275C68.3086 19.4406 68.3632 19.8812 68.3632 20.3217V20.5145Z" fill="white"/>
<path d="M45.3752 23.0203V18.6971C45.3752 18.0087 45.2387 17.4304 44.9384 16.9623C44.6381 16.4942 44.2559 16.1638 43.7371 15.9159C43.2184 15.6957 42.6451 15.5855 41.9625 15.5855C41.4165 15.5855 40.8978 15.6681 40.4337 15.8333C39.9968 15.9986 39.5873 16.1913 39.287 16.4667C38.9594 16.742 38.7137 17.0174 38.5498 17.3478C38.386 17.6783 38.3041 18.0087 38.3041 18.3391H39.8876C39.8876 18.0913 39.9695 17.8435 40.1333 17.6232C40.2971 17.4029 40.5429 17.2101 40.8432 17.0725C41.1435 16.9348 41.4984 16.8522 41.8806 16.8522C42.3175 16.8522 42.6724 16.9348 42.9454 17.0725C43.2457 17.2101 43.4641 17.4304 43.6006 17.7058C43.7371 17.9812 43.819 18.2841 43.819 18.6696V19.413H42.2629C41.6349 19.413 41.0616 19.4681 40.5429 19.6058C40.0241 19.7435 39.5873 19.9362 39.2324 20.1841C38.8775 20.4319 38.5771 20.7623 38.386 21.1478C38.1949 21.5333 38.0857 21.9739 38.0857 22.4696C38.0857 22.9928 38.2222 23.4609 38.4679 23.8739C38.741 24.287 39.0959 24.6174 39.56 24.8652C40.0241 25.113 40.5702 25.2232 41.1981 25.2232C41.6895 25.2232 42.1537 25.1406 42.5359 24.9754C42.9454 24.8101 43.3003 24.5899 43.5733 24.3145C43.6552 24.2319 43.7371 24.1493 43.819 24.0667C43.819 24.1493 43.8464 24.2319 43.8464 24.3145C43.901 24.6174 43.9556 24.8652 44.0375 25.058H45.6756V24.9203C45.5664 24.6725 45.4844 24.3696 45.4298 24.0116C45.3752 23.6536 45.3752 23.3507 45.3752 23.0203ZM42.6997 23.5159C42.3175 23.7362 41.9079 23.8188 41.4165 23.8188C41.0343 23.8188 40.7067 23.7638 40.4337 23.5985C40.1606 23.4609 39.9695 23.2681 39.833 23.0203C39.6965 22.7725 39.6419 22.5246 39.6419 22.2217C39.6419 21.9464 39.6965 21.6986 39.833 21.4783C39.9695 21.258 40.1333 21.0928 40.379 20.9275C40.6248 20.7899 40.9251 20.6797 41.2527 20.5971C41.6076 20.5145 42.0171 20.487 42.454 20.487H43.7644V22.387C43.7098 22.4971 43.6552 22.6072 43.546 22.7174C43.3549 23.0754 43.0819 23.3232 42.6997 23.5159Z" fill="white"/>
</svg>
