<svg width="18" height="18" viewBox="0 0 18 18" fill="none" xmlns="http://www.w3.org/2000/svg">
<path fill-rule="evenodd" clip-rule="evenodd" d="M9.94746 0.947369C9.94746 0.424151 9.52331 0 9.00009 0C8.47688 0 8.05272 0.424152 8.05272 0.947369V8.05263H0.947369C0.424151 8.05263 0 8.47678 0 9C0 9.52322 0.424152 9.94737 0.947369 9.94737H8.05272V17.0526C8.05272 17.5758 8.47687 18 9.00009 18C9.52331 18 9.94746 17.5758 9.94746 17.0526V9.94737H17.0526C17.5758 9.94737 18 9.52322 18 9C18 8.47678 17.5758 8.05263 17.0526 8.05263H9.94746V0.947369Z" fill="#FF9138"/>
</svg>
