<svg width="100" height="40" viewBox="0 0 100 40" fill="none" xmlns="http://www.w3.org/2000/svg">
<g opacity="0.5">
<path fill-rule="evenodd" clip-rule="evenodd" d="M25.131 19.1216V0H30.2082V12.5402C30.2082 12.5402 32.3757 8.79571 39.3275 8.79571C46.7675 8.79571 51.1612 14.0419 51.1612 20.5558C51.1612 21.3374 51.1015 22.0927 50.9858 22.8179C52.1939 19.4618 56.3418 17.806 63.1718 17.806H69.362V16.7139C69.362 13.652 66.6672 12.0527 63.1718 12.0527C57.8018 12.0527 57.5284 15.4462 57.5284 15.4462H52.2559C52.2559 14.5101 52.9394 8.71777 63.5428 8.71777C67.1639 8.71777 71.1371 9.47979 73.1431 12.4697L71.6266 9.63477H77.5629L86.0964 26.6996L94.6104 9.63477H100L84.5147 40.0004H78.8713L83.3431 31.5363L73.7929 13.6843C74.2221 14.7149 74.4627 15.9469 74.4587 17.416V28.3765C74.4587 29.6441 74.6344 31.6334 74.6344 31.6334H69.9478C69.9478 31.6334 69.8307 30.0342 69.8307 28.4155C69.8307 28.4155 67.4483 32.4915 60.0474 32.4915C54.6383 32.4915 50.6156 29.8782 50.6156 25.0805C50.6156 24.8232 50.6277 24.5729 50.6518 24.3293C49.2443 29.2537 45.026 32.4525 39.3275 32.4525C32.6296 32.4525 30.1691 28.6104 30.1691 28.6104C30.1691 30.0536 29.9934 31.6529 29.9934 31.6529H25.0139C25.0139 31.6529 25.131 29.4295 25.131 27.8498V21.882H5.15525C5.15525 26.0946 8.35776 29.0785 12.7905 29.0785C18.2387 29.0785 19.3517 25.256 19.3517 25.256H24.5656C24.5656 25.256 23.8821 32.3549 13.1029 32.3549C3.94455 32.3549 0 27.8498 0 20.7118C0 11.7016 5.87777 8.7177 12.9272 8.7177C22.3978 8.7177 25.0772 14.9844 25.131 19.1216ZM19.8588 18.5471C19.8588 14.6661 16.9687 12.0917 12.7508 12.0917C9.04056 12.0917 5.27175 14.432 5.29128 18.5471H19.8588ZM38.0586 12.2285C42.8429 12.2285 45.8892 15.778 45.8892 20.5367C45.8892 25.6464 42.3742 28.9813 38.0977 28.9813C32.9815 28.9813 30.2281 25.0028 30.2281 20.5757C30.2281 16.4801 32.6886 12.2285 38.0586 12.2285ZM69.3808 21.082V22.5447C69.3808 24.4365 68.2092 29.1561 61.316 29.1561C57.5276 29.1561 55.9068 27.2644 55.9068 25.0801C55.9068 21.121 61.355 21.082 69.3808 21.082Z" fill="#3F0B71"/>
</g>
</svg>
