<svg width="101" height="100" viewBox="0 0 101 100" fill="none" xmlns="http://www.w3.org/2000/svg">
<path d="M63.0208 58.2843C60.6097 60.6342 55.011 66.0908 52.3945 68.6409C51.6178 69.3979 50.3808 69.3965 49.6041 68.6396C47.0286 66.1294 41.5571 60.7968 38.9792 58.2843C32.3403 51.8139 32.3403 41.3232 38.9792 34.8528C45.6181 28.3824 56.3819 28.3824 63.0208 34.8528C69.6597 41.3232 69.6597 51.8139 63.0208 58.2843Z" stroke="#FF9138" stroke-width="3" stroke-linecap="round" stroke-linejoin="round"/>
<path d="M57.375 46.5685C57.375 50 54.5208 52.7817 51 52.7817C47.4792 52.7817 44.625 50 44.625 46.5685C44.625 43.1371 47.4792 40.3553 51 40.3553C54.5208 40.3553 57.375 43.1371 57.375 46.5685Z" stroke="#FF9138" stroke-width="3" stroke-linecap="round" stroke-linejoin="round"/>
<rect x="2.5" y="2" width="96" height="96" rx="18" stroke="#FF9138" stroke-width="4"/>
</svg>
