<svg width="100" height="100" viewBox="0 0 100 100" fill="none" xmlns="http://www.w3.org/2000/svg">
<path d="M30 34.4444C30 31.9898 31.9898 30 34.4444 30H41.7316C42.6882 30 43.5374 30.6121 43.8398 31.5195L47.1683 41.5049C47.518 42.5541 47.0431 43.7007 46.0539 44.1953L41.0378 46.7033C43.4872 52.136 47.864 56.5128 53.2967 58.9622L55.8047 53.9461C56.2993 52.9569 57.4459 52.482 58.4951 52.8317L68.4805 56.1602C69.3879 56.4626 70 57.3118 70 58.2684V65.5556C70 68.0101 68.0101 70 65.5556 70H63.3333C44.9238 70 30 55.0762 30 36.6667V34.4444Z" stroke="#FF9138" stroke-width="3" stroke-linecap="round" stroke-linejoin="round"/>
<rect x="2" y="2" width="96" height="96" rx="18" stroke="#FF9138" stroke-width="4"/>
</svg>
